<?xml version="1.0" encoding="utf-8"?>
<!-- Generator: Adobe Illustrator 21.1.0, SVG Export Plug-In . SVG Version: 6.00 Build 0)  -->
<svg version="1.1" id="Layer_1" xmlns="http://www.w3.org/2000/svg" xmlns:xlink="http://www.w3.org/1999/xlink" x="0px" y="0px"
	 viewBox="0 0 100 100" style="enable-background:new 0 0 100 100;" xml:space="preserve">
<style type="text/css">
	.st0{fill:none;stroke:#000000;stroke-width:2;stroke-linecap:round;stroke-linejoin:round;stroke-miterlimit:10;}
	.st1{fill:none;stroke:#000000;stroke-width:2;stroke-miterlimit:10;}
	.st2{fill:none;stroke:#000000;stroke-width:2;stroke-linecap:round;stroke-miterlimit:10;}
	.st3{fill:none;stroke:#000000;stroke-width:2;stroke-linecap:round;stroke-linejoin:round;}
	.st4{fill:none;stroke:#000000;stroke-width:2;stroke-linecap:round;stroke-linejoin:round;stroke-dasharray:12.6718,4.2239;}
	.st5{fill:none;stroke:#000000;stroke-width:2;stroke-linecap:round;stroke-linejoin:round;stroke-dasharray:8.6895,2.8965;}
	.st6{fill:none;stroke:#000000;stroke-width:2;stroke-linecap:round;stroke-linejoin:round;stroke-dasharray:4.6635;}
	.st7{fill:none;stroke:#000000;stroke-width:2;stroke-linecap:round;stroke-linejoin:round;stroke-dasharray:12.8702,4.2901;}
	.st8{fill:none;stroke:#000000;stroke-width:2;stroke-linecap:round;stroke-linejoin:round;stroke-dasharray:8.4419,2.814;}
	.st9{fill:none;stroke:#000000;stroke-width:2;stroke-linecap:round;stroke-linejoin:round;stroke-dasharray:11.2908,3.7636;}
	.st10{fill:none;stroke:#000000;stroke-width:2;stroke-linecap:round;stroke-linejoin:round;stroke-dasharray:8.9003,2.9668;}
	.st11{fill:none;stroke:#000000;stroke-width:2;stroke-linecap:round;stroke-linejoin:round;stroke-dasharray:6.753,2.251;}
	.st12{fill:none;stroke:#000000;stroke-width:2;stroke-linecap:round;stroke-linejoin:round;stroke-dasharray:11.3525,3.7842;}
	.st13{fill:none;stroke:#000000;stroke-width:2;stroke-linecap:round;stroke-linejoin:round;stroke-dasharray:13.6549,4.5516;}
	.st14{fill:none;stroke:#000000;stroke-width:2;stroke-linecap:round;stroke-linejoin:round;stroke-dasharray:7.8218,2.6073;}
	.st15{fill:none;stroke:#000000;stroke-width:2;stroke-linecap:round;stroke-linejoin:round;stroke-dasharray:10.013,3.3377;}
	.st16{fill:none;stroke:#000000;stroke-width:2;stroke-linecap:round;stroke-linejoin:round;stroke-dasharray:3.2499;}
	.st17{fill:none;stroke:#000000;stroke-width:2;stroke-linecap:round;stroke-linejoin:round;stroke-dasharray:8.217,2.739;}
	.st18{fill:none;stroke:#000000;stroke-width:2;stroke-linecap:round;stroke-linejoin:round;stroke-dasharray:7.9698,2.6566;}
</style>
<g>
	<path class="st0" d="M15.395,48.012L15.395,48.012c-2.219-4.452-3.006-9.656-1.883-14.898c2.631-12.285,14.723-20.111,27.007-17.48
		c12.285,2.631,20.111,14.723,17.48,27.007c-2.631,12.285-14.723,20.111-27.007,17.48c-1.87-0.401-3.635-1.023-5.277-1.829
		l0.002,0.002c0,0-7.472,4.83-14.591,0.279C11.125,58.572,17.632,55.541,15.395,48.012z"/>
	<path class="st0" d="M84.855,72.259L84.855,72.259c2.219-4.452,3.006-9.656,1.883-14.898c-2.631-12.285-14.723-20.111-27.007-17.48
		c-12.285,2.631-20.111,14.723-17.48,27.007c2.631,12.285,14.723,20.111,27.007,17.48c1.87-0.4,3.635-1.023,5.277-1.829
		l-0.002,0.002c0,0,7.472,4.83,14.591,0.279C89.125,82.819,82.618,79.787,84.855,72.259z"/>
	<g>
		<path class="st0" d="M35.9,32.449c3.38-5.519,10.787-1.816,9.356,4.438c-1.401,6.12-9.356,9.356-9.356,9.356
			s-7.956-3.236-9.356-9.356C25.112,30.633,32.52,26.929,35.9,32.449z"/>
	</g>
	<g>
		<path class="st0" d="M65.434,58.449c3.38-5.519,10.787-1.816,9.356,4.438c-1.401,6.12-9.356,9.356-9.356,9.356
			s-7.956-3.236-9.356-9.356C54.646,56.633,62.054,52.93,65.434,58.449z"/>
	</g>
</g>
</svg>
