<?xml version="1.0" encoding="utf-8"?>
<!-- Generator: Adobe Illustrator 21.1.0, SVG Export Plug-In . SVG Version: 6.00 Build 0)  -->
<svg version="1.1" id="Layer_1" xmlns="http://www.w3.org/2000/svg" xmlns:xlink="http://www.w3.org/1999/xlink" x="0px" y="0px"
	 viewBox="0 0 100 100" style="enable-background:new 0 0 100 100;" xml:space="preserve">
<style type="text/css">
	.st0{fill:none;stroke:#000000;stroke-width:2;stroke-linecap:round;stroke-linejoin:round;stroke-miterlimit:10;}
	.st1{fill:none;stroke:#000000;stroke-width:2;stroke-miterlimit:10;}
	.st2{fill:none;stroke:#000000;stroke-width:2;stroke-linecap:round;stroke-miterlimit:10;}
	.st3{fill:none;stroke:#000000;stroke-width:2;stroke-linecap:round;stroke-linejoin:round;}
	.st4{fill:none;stroke:#000000;stroke-width:2;stroke-linecap:round;stroke-linejoin:round;stroke-dasharray:12.6718,4.2239;}
	.st5{fill:none;stroke:#000000;stroke-width:2;stroke-linecap:round;stroke-linejoin:round;stroke-dasharray:8.6895,2.8965;}
	.st6{fill:none;stroke:#000000;stroke-width:2;stroke-linecap:round;stroke-linejoin:round;stroke-dasharray:4.6635;}
	.st7{fill:none;stroke:#000000;stroke-width:2;stroke-linecap:round;stroke-linejoin:round;stroke-dasharray:12.8702,4.2901;}
	.st8{fill:none;stroke:#000000;stroke-width:2;stroke-linecap:round;stroke-linejoin:round;stroke-dasharray:8.4419,2.814;}
	.st9{fill:none;stroke:#000000;stroke-width:2;stroke-linecap:round;stroke-linejoin:round;stroke-dasharray:11.2908,3.7636;}
	.st10{fill:none;stroke:#000000;stroke-width:2;stroke-linecap:round;stroke-linejoin:round;stroke-dasharray:8.9003,2.9668;}
	.st11{fill:none;stroke:#000000;stroke-width:2;stroke-linecap:round;stroke-linejoin:round;stroke-dasharray:6.753,2.251;}
	.st12{fill:none;stroke:#000000;stroke-width:2;stroke-linecap:round;stroke-linejoin:round;stroke-dasharray:11.3525,3.7842;}
	.st13{fill:none;stroke:#000000;stroke-width:2;stroke-linecap:round;stroke-linejoin:round;stroke-dasharray:13.6549,4.5516;}
	.st14{fill:none;stroke:#000000;stroke-width:2;stroke-linecap:round;stroke-linejoin:round;stroke-dasharray:7.8218,2.6073;}
	.st15{fill:none;stroke:#000000;stroke-width:2;stroke-linecap:round;stroke-linejoin:round;stroke-dasharray:10.013,3.3377;}
	.st16{fill:none;stroke:#000000;stroke-width:2;stroke-linecap:round;stroke-linejoin:round;stroke-dasharray:3.2499;}
	.st17{fill:none;stroke:#000000;stroke-width:2;stroke-linecap:round;stroke-linejoin:round;stroke-dasharray:8.217,2.739;}
	.st18{fill:none;stroke:#000000;stroke-width:2;stroke-linecap:round;stroke-linejoin:round;stroke-dasharray:7.9698,2.6566;}
</style>
<g>
	<line class="st0" x1="32.656" y1="89.001" x2="18.009" y2="85.707"/>
	<path class="st0" d="M32.13,20.157l15.463,3.477c-0.165,3.864-1.943,13.541-2.847,17.564c-2.92,12.983-9.221,22.632-14.068,21.542
		c-4.848-1.09-6.412-12.506-3.492-25.49C28.089,33.226,30.625,23.72,32.13,20.157z"/>
	<path class="st1" d="M45.122,39.694c-1.102-1.293-2.026-2.689-4.451-3.234c-4.323-0.972-5.492,2.549-9.816,1.577
		c-1.675-0.377-2.634-1.16-3.429-2.035"/>
	<line class="st0" x1="30.676" y1="62.739" x2="25.294" y2="86.676"/>
	<line class="st0" x1="67.344" y1="89.001" x2="81.991" y2="85.707"/>
	<path class="st0" d="M67.87,20.157l-15.463,3.477c0.165,3.864,1.943,13.541,2.847,17.564c2.92,12.983,9.221,22.632,14.068,21.542
		c4.848-1.09,6.412-12.506,3.492-25.49C71.911,33.226,69.375,23.72,67.87,20.157z"/>
	<path class="st1" d="M54.878,39.694c1.102-1.293,2.026-2.689,4.451-3.234c4.323-0.972,5.492,2.549,9.816,1.577
		c1.675-0.377,2.634-1.16,3.429-2.035"/>
	<line class="st0" x1="69.323" y1="62.739" x2="74.706" y2="86.676"/>
	<line class="st0" x1="50.011" y1="16.364" x2="49.918" y2="11"/>
	<line class="st0" x1="44.013" y1="16.898" x2="41.251" y2="12.3"/>
	<line class="st0" x1="55.908" y1="16.874" x2="58.749" y2="12.324"/>
</g>
</svg>
