<?xml version="1.0" encoding="utf-8"?>
<!-- Generator: Adobe Illustrator 21.1.0, SVG Export Plug-In . SVG Version: 6.00 Build 0)  -->
<svg version="1.1" id="Layer_1" xmlns="http://www.w3.org/2000/svg" xmlns:xlink="http://www.w3.org/1999/xlink" x="0px" y="0px"
	 viewBox="0 0 100 100" style="enable-background:new 0 0 100 100;" xml:space="preserve">
<style type="text/css">
	.st0{fill:none;stroke:#000000;stroke-width:2;stroke-linecap:round;stroke-linejoin:round;stroke-miterlimit:10;}
	.st1{fill:none;stroke:#000000;stroke-width:2;stroke-miterlimit:10;}
	.st2{fill:none;stroke:#000000;stroke-width:2;stroke-linecap:round;stroke-miterlimit:10;}
	.st3{fill:none;stroke:#000000;stroke-width:2;stroke-linecap:round;stroke-linejoin:round;}
	.st4{fill:none;stroke:#000000;stroke-width:2;stroke-linecap:round;stroke-linejoin:round;stroke-dasharray:12.6718,4.2239;}
	.st5{fill:none;stroke:#000000;stroke-width:2;stroke-linecap:round;stroke-linejoin:round;stroke-dasharray:8.6895,2.8965;}
	.st6{fill:none;stroke:#000000;stroke-width:2;stroke-linecap:round;stroke-linejoin:round;stroke-dasharray:4.6635;}
	.st7{fill:none;stroke:#000000;stroke-width:2;stroke-linecap:round;stroke-linejoin:round;stroke-dasharray:12.8702,4.2901;}
	.st8{fill:none;stroke:#000000;stroke-width:2;stroke-linecap:round;stroke-linejoin:round;stroke-dasharray:8.4419,2.814;}
	.st9{fill:none;stroke:#000000;stroke-width:2;stroke-linecap:round;stroke-linejoin:round;stroke-dasharray:11.2908,3.7636;}
	.st10{fill:none;stroke:#000000;stroke-width:2;stroke-linecap:round;stroke-linejoin:round;stroke-dasharray:8.9003,2.9668;}
	.st11{fill:none;stroke:#000000;stroke-width:2;stroke-linecap:round;stroke-linejoin:round;stroke-dasharray:6.753,2.251;}
	.st12{fill:none;stroke:#000000;stroke-width:2;stroke-linecap:round;stroke-linejoin:round;stroke-dasharray:11.3525,3.7842;}
	.st13{fill:none;stroke:#000000;stroke-width:2;stroke-linecap:round;stroke-linejoin:round;stroke-dasharray:13.6549,4.5516;}
	.st14{fill:none;stroke:#000000;stroke-width:2;stroke-linecap:round;stroke-linejoin:round;stroke-dasharray:7.8218,2.6073;}
	.st15{fill:none;stroke:#000000;stroke-width:2;stroke-linecap:round;stroke-linejoin:round;stroke-dasharray:10.013,3.3377;}
	.st16{fill:none;stroke:#000000;stroke-width:2;stroke-linecap:round;stroke-linejoin:round;stroke-dasharray:3.2499;}
	.st17{fill:none;stroke:#000000;stroke-width:2;stroke-linecap:round;stroke-linejoin:round;stroke-dasharray:8.217,2.739;}
	.st18{fill:none;stroke:#000000;stroke-width:2;stroke-linecap:round;stroke-linejoin:round;stroke-dasharray:7.9698,2.6566;}
</style>
<g>
	<g>
		<path class="st0" d="M27.365,70.463c2.601-4.248,8.303-1.397,7.201,3.416c-1.078,4.71-7.201,7.201-7.201,7.201
			s-6.124-2.491-7.201-7.201C19.063,69.065,24.764,66.215,27.365,70.463z"/>
	</g>
	<g>
		<path class="st0" d="M72.88,70.463c2.601-4.248,8.303-1.397,7.201,3.416c-1.078,4.71-7.201,7.201-7.201,7.201
			s-6.124-2.491-7.201-7.201C64.577,69.065,70.278,66.215,72.88,70.463z"/>
	</g>
	<g>
		<path class="st0" d="M27.365,29.728c2.601-4.248,8.303-1.398,7.201,3.416c-1.078,4.71-7.201,7.201-7.201,7.201
			s-6.124-2.491-7.201-7.201C19.063,28.331,24.764,25.48,27.365,29.728z"/>
	</g>
	<g>
		<path class="st0" d="M72.88,29.728c2.601-4.248,8.303-1.398,7.201,3.416c-1.078,4.71-7.201,7.201-7.201,7.201
			s-6.124-2.491-7.201-7.201C64.577,28.331,70.278,25.48,72.88,29.728z"/>
	</g>
	<path class="st0" d="M46.273,20.881l-11.849,1.482c-2.162,0.27-4.071-1.415-4.071-3.593v-4.148c0-2.178,1.909-3.864,4.071-3.593
		l11.849,1.482V20.881z"/>
	<path class="st0" d="M54.222,12.51l11.849-1.482c2.162-0.27,4.071,1.415,4.071,3.593v4.148c0,2.178-1.909,3.864-4.071,3.593
		l-11.849-1.482V12.51z"/>
	<path class="st0" d="M52.044,22.133h-3.592c-1.203,0-2.179-0.975-2.179-2.179v-6.517c0-1.203,0.975-2.179,2.179-2.179h3.592
		c1.203,0,2.179,0.975,2.179,2.179v6.517C54.222,21.157,53.247,22.133,52.044,22.133z"/>
	<polyline class="st0" points="70.142,16.696 89.125,16.696 89.125,89 11.125,89 11.125,16.696 30.353,16.696 	"/>
	<line class="st0" x1="43.526" y1="88.562" x2="43.526" y2="22.133"/>
	<line class="st0" x1="56.596" y1="22.133" x2="56.596" y2="88.562"/>
	<line class="st0" x1="57.197" y1="46.75" x2="88.562" y2="46.75"/>
	<line class="st0" x1="11.75" y1="46.75" x2="42.981" y2="46.75"/>
	<line class="st0" x1="42.981" y1="59.82" x2="11.75" y2="59.82"/>
	<line class="st0" x1="88.562" y1="59.82" x2="57.197" y2="59.82"/>
</g>
</svg>
