<?xml version="1.0" encoding="utf-8"?>
<!-- Generator: Adobe Illustrator 21.1.0, SVG Export Plug-In . SVG Version: 6.00 Build 0)  -->
<svg version="1.1" id="Layer_1" xmlns="http://www.w3.org/2000/svg" xmlns:xlink="http://www.w3.org/1999/xlink" x="0px" y="0px"
	 viewBox="0 0 100 100" style="enable-background:new 0 0 100 100;" xml:space="preserve">
<style type="text/css">
	.st0{fill:none;stroke:#000000;stroke-width:2;stroke-linecap:round;stroke-linejoin:round;stroke-miterlimit:10;}
	.st1{fill:none;stroke:#000000;stroke-width:2;stroke-miterlimit:10;}
	.st2{fill:none;stroke:#000000;stroke-width:2;stroke-linecap:round;stroke-miterlimit:10;}
	.st3{fill:none;stroke:#000000;stroke-width:2;stroke-linecap:round;stroke-linejoin:round;}
	.st4{fill:none;stroke:#000000;stroke-width:2;stroke-linecap:round;stroke-linejoin:round;stroke-dasharray:12.6718,4.2239;}
	.st5{fill:none;stroke:#000000;stroke-width:2;stroke-linecap:round;stroke-linejoin:round;stroke-dasharray:8.6895,2.8965;}
	.st6{fill:none;stroke:#000000;stroke-width:2;stroke-linecap:round;stroke-linejoin:round;stroke-dasharray:4.6635;}
	.st7{fill:none;stroke:#000000;stroke-width:2;stroke-linecap:round;stroke-linejoin:round;stroke-dasharray:12.8702,4.2901;}
	.st8{fill:none;stroke:#000000;stroke-width:2;stroke-linecap:round;stroke-linejoin:round;stroke-dasharray:8.4419,2.814;}
	.st9{fill:none;stroke:#000000;stroke-width:2;stroke-linecap:round;stroke-linejoin:round;stroke-dasharray:11.2908,3.7636;}
	.st10{fill:none;stroke:#000000;stroke-width:2;stroke-linecap:round;stroke-linejoin:round;stroke-dasharray:8.9003,2.9668;}
	.st11{fill:none;stroke:#000000;stroke-width:2;stroke-linecap:round;stroke-linejoin:round;stroke-dasharray:6.753,2.251;}
	.st12{fill:none;stroke:#000000;stroke-width:2;stroke-linecap:round;stroke-linejoin:round;stroke-dasharray:11.3525,3.7842;}
	.st13{fill:none;stroke:#000000;stroke-width:2;stroke-linecap:round;stroke-linejoin:round;stroke-dasharray:13.6549,4.5516;}
	.st14{fill:none;stroke:#000000;stroke-width:2;stroke-linecap:round;stroke-linejoin:round;stroke-dasharray:7.8218,2.6073;}
	.st15{fill:none;stroke:#000000;stroke-width:2;stroke-linecap:round;stroke-linejoin:round;stroke-dasharray:10.013,3.3377;}
	.st16{fill:none;stroke:#000000;stroke-width:2;stroke-linecap:round;stroke-linejoin:round;stroke-dasharray:3.2499;}
	.st17{fill:none;stroke:#000000;stroke-width:2;stroke-linecap:round;stroke-linejoin:round;stroke-dasharray:8.217,2.739;}
	.st18{fill:none;stroke:#000000;stroke-width:2;stroke-linecap:round;stroke-linejoin:round;stroke-dasharray:7.9698,2.6566;}
</style>
<g>
	<path class="st2" d="M68.798,27.425H31.202c-3.104,0-5.643-2.54-5.643-5.643v-5.139c0-3.104,2.539-5.643,5.643-5.643h37.596
		c3.104,0,5.643,2.539,5.643,5.643v5.139C74.441,24.885,71.901,27.425,68.798,27.425z"/>
	<path class="st2" d="M69.13,89.001c7.901,0,7.786-7.493,7.786-7.493s0-38.008,0-44.82s-7.786-9.264-7.786-9.264H30.869
		c0,0-7.786,2.452-7.786,9.264s0,44.82,0,44.82s-0.115,7.493,7.786,7.493C38.77,89.001,61.229,89.001,69.13,89.001z"/>
	<line class="st2" x1="30.815" y1="15.383" x2="30.815" y2="23.441"/>
	<line class="st2" x1="35.071" y1="15.383" x2="35.071" y2="23.441"/>
	<line class="st2" x1="39.326" y1="15.383" x2="39.326" y2="23.441"/>
	<line class="st2" x1="43.581" y1="15.383" x2="43.581" y2="23.441"/>
	<line class="st2" x1="47.837" y1="15.383" x2="47.837" y2="23.441"/>
	<line class="st2" x1="52.092" y1="15.383" x2="52.092" y2="23.441"/>
	<line class="st2" x1="56.347" y1="15.383" x2="56.347" y2="23.441"/>
	<line class="st2" x1="60.603" y1="15.383" x2="60.603" y2="23.441"/>
	<line class="st2" x1="64.858" y1="15.383" x2="64.858" y2="23.441"/>
	<line class="st2" x1="69.113" y1="15.383" x2="69.113" y2="23.441"/>
	<path class="st2" d="M62.35,84.042H41.496c-0.985,0-1.79-0.806-1.79-1.79v-1.54c0-0.985,0.806-1.79,1.79-1.79H62.35
		c0.985,0,1.79,0.806,1.79,1.79v1.54C64.14,83.237,63.334,84.042,62.35,84.042z"/>
	<path class="st2" d="M57.428,78.921H36.575c-0.985,0-1.79-0.806-1.79-1.79v-1.54c0-0.985,0.806-1.79,1.79-1.79h20.854
		c0.985,0,1.79,0.806,1.79,1.79v1.54C59.219,78.116,58.413,78.921,57.428,78.921z"/>
	<path class="st2" d="M64.612,75.083L44.297,70.37c-0.959-0.222-1.562-1.189-1.339-2.149l0.348-1.501
		c0.222-0.959,1.189-1.562,2.149-1.34l20.314,4.713c0.959,0.222,1.562,1.189,1.339,2.149l-0.348,1.501
		C66.538,74.702,65.571,75.305,64.612,75.083z"/>
	<path class="st2" d="M55.776,63.033l-20.679,2.695c-0.977,0.127-1.88-0.568-2.007-1.544l-0.199-1.527
		c-0.127-0.977,0.568-1.88,1.544-2.007l20.679-2.695c0.976-0.127,1.879,0.568,2.007,1.544l0.199,1.527
		C57.447,62.002,56.752,62.905,55.776,63.033z"/>
	<g>
		<path class="st0" d="M50.436,37.393c3.056-4.99,9.753-1.642,8.459,4.013c-1.266,5.533-8.459,8.459-8.459,8.459
			s-7.194-2.926-8.459-8.459C40.683,35.751,47.38,32.403,50.436,37.393z"/>
	</g>
</g>
</svg>
