<?xml version="1.0" encoding="utf-8"?>
<!-- Generator: Adobe Illustrator 21.1.0, SVG Export Plug-In . SVG Version: 6.00 Build 0)  -->
<svg version="1.1" id="Layer_1" xmlns="http://www.w3.org/2000/svg" xmlns:xlink="http://www.w3.org/1999/xlink" x="0px" y="0px"
	 viewBox="0 0 100 100" style="enable-background:new 0 0 100 100;" xml:space="preserve">
<style type="text/css">
	.st0{fill:none;stroke:#000000;stroke-width:2;stroke-linecap:round;stroke-linejoin:round;stroke-miterlimit:10;}
	.st1{fill:none;stroke:#000000;stroke-width:2;stroke-miterlimit:10;}
	.st2{fill:none;stroke:#000000;stroke-width:2;stroke-linecap:round;stroke-miterlimit:10;}
	.st3{fill:none;stroke:#000000;stroke-width:2;stroke-linecap:round;stroke-linejoin:round;}
	.st4{fill:none;stroke:#000000;stroke-width:2;stroke-linecap:round;stroke-linejoin:round;stroke-dasharray:12.6718,4.2239;}
	.st5{fill:none;stroke:#000000;stroke-width:2;stroke-linecap:round;stroke-linejoin:round;stroke-dasharray:8.6895,2.8965;}
	.st6{fill:none;stroke:#000000;stroke-width:2;stroke-linecap:round;stroke-linejoin:round;stroke-dasharray:4.6635;}
	.st7{fill:none;stroke:#000000;stroke-width:2;stroke-linecap:round;stroke-linejoin:round;stroke-dasharray:12.8702,4.2901;}
	.st8{fill:none;stroke:#000000;stroke-width:2;stroke-linecap:round;stroke-linejoin:round;stroke-dasharray:8.4419,2.814;}
	.st9{fill:none;stroke:#000000;stroke-width:2;stroke-linecap:round;stroke-linejoin:round;stroke-dasharray:11.2908,3.7636;}
	.st10{fill:none;stroke:#000000;stroke-width:2;stroke-linecap:round;stroke-linejoin:round;stroke-dasharray:8.9003,2.9668;}
	.st11{fill:none;stroke:#000000;stroke-width:2;stroke-linecap:round;stroke-linejoin:round;stroke-dasharray:6.753,2.251;}
	.st12{fill:none;stroke:#000000;stroke-width:2;stroke-linecap:round;stroke-linejoin:round;stroke-dasharray:11.3525,3.7842;}
	.st13{fill:none;stroke:#000000;stroke-width:2;stroke-linecap:round;stroke-linejoin:round;stroke-dasharray:13.6549,4.5516;}
	.st14{fill:none;stroke:#000000;stroke-width:2;stroke-linecap:round;stroke-linejoin:round;stroke-dasharray:7.8218,2.6073;}
	.st15{fill:none;stroke:#000000;stroke-width:2;stroke-linecap:round;stroke-linejoin:round;stroke-dasharray:10.013,3.3377;}
	.st16{fill:none;stroke:#000000;stroke-width:2;stroke-linecap:round;stroke-linejoin:round;stroke-dasharray:3.2499;}
	.st17{fill:none;stroke:#000000;stroke-width:2;stroke-linecap:round;stroke-linejoin:round;stroke-dasharray:8.217,2.739;}
	.st18{fill:none;stroke:#000000;stroke-width:2;stroke-linecap:round;stroke-linejoin:round;stroke-dasharray:7.9698,2.6566;}
</style>
<g>
	<polygon class="st0" points="54.298,82.556 50.406,84.803 46.515,82.556 46.515,73.869 50.406,71.622 54.298,73.869 	"/>
	<polygon class="st0" points="57.572,84.673 50.406,89.118 43.24,84.673 43.24,71.752 50.406,67.308 57.572,71.752 	"/>
	<line class="st0" x1="50.406" y1="67.774" x2="50.406" y2="71.622"/>
	<line class="st0" x1="50.406" y1="84.803" x2="50.406" y2="88.29"/>
	<line class="st0" x1="46.515" y1="73.869" x2="43.555" y2="71.955"/>
	<line class="st0" x1="43.926" y1="84.23" x2="46.515" y2="82.556"/>
	<line class="st0" x1="54.298" y1="73.869" x2="57.572" y2="71.752"/>
	<line class="st0" x1="54.298" y1="82.556" x2="57.087" y2="84.36"/>
	
		<ellipse transform="matrix(0.2752 -0.9614 0.9614 0.2752 10.2613 107.6824)" class="st0" cx="76.545" cy="47.036" rx="3.658" ry="3.658"/>
	
		<ellipse transform="matrix(0.5672 -0.8236 0.8236 0.5672 -13.8863 83.7494)" class="st0" cx="72.745" cy="55.088" rx="3.658" ry="3.658"/>
	
		<ellipse transform="matrix(0.8001 -0.5998 0.5998 0.8001 -23.5875 52.2274)" class="st0" cx="66.577" cy="61.508" rx="3.658" ry="3.658"/>
	
		<ellipse transform="matrix(0.6085 -0.7935 0.7935 0.6085 -35.6418 50.4016)" class="st0" cx="33.264" cy="61.326" rx="3.658" ry="3.658"/>
	
		<ellipse transform="matrix(0.8297 -0.5582 0.5582 0.8297 -25.9837 24.5019)" class="st0" cx="27.167" cy="54.838" rx="3.658" ry="3.658"/>
	
		<ellipse transform="matrix(0.9643 -0.2646 0.2646 0.9643 -11.5347 7.874)" class="st0" cx="23.455" cy="46.745" rx="3.658" ry="3.658"/>
	<path class="st0" d="M21.94,43.291c-0.167-1.245-0.253-2.516-0.253-3.807c0-15.666,12.7-28.366,28.366-28.366
		c15.666,0,28.366,12.7,28.366,28.366c0,1.512-0.038,2.445-0.266,3.893"/>
	<path class="st0" d="M63.709,63.81c-4.051,2.229-8.706,3.498-13.656,3.498c-5.068,0-9.825-1.329-13.943-3.658"/>
</g>
</svg>
