<?xml version="1.0" encoding="utf-8"?>
<!-- Generator: Adobe Illustrator 21.1.0, SVG Export Plug-In . SVG Version: 6.00 Build 0)  -->
<svg version="1.1" id="Layer_1" xmlns="http://www.w3.org/2000/svg" xmlns:xlink="http://www.w3.org/1999/xlink" x="0px" y="0px"
	 viewBox="0 0 100 100" style="enable-background:new 0 0 100 100;" xml:space="preserve">
<style type="text/css">
	.st0{fill:none;stroke:#000000;stroke-width:2;stroke-linecap:round;stroke-linejoin:round;stroke-miterlimit:10;}
	.st1{fill:none;stroke:#000000;stroke-width:2;stroke-miterlimit:10;}
	.st2{fill:none;stroke:#000000;stroke-width:2;stroke-linecap:round;stroke-miterlimit:10;}
	.st3{fill:none;stroke:#000000;stroke-width:2;stroke-linecap:round;stroke-linejoin:round;}
	.st4{fill:none;stroke:#000000;stroke-width:2;stroke-linecap:round;stroke-linejoin:round;stroke-dasharray:12.6718,4.2239;}
	.st5{fill:none;stroke:#000000;stroke-width:2;stroke-linecap:round;stroke-linejoin:round;stroke-dasharray:8.6895,2.8965;}
	.st6{fill:none;stroke:#000000;stroke-width:2;stroke-linecap:round;stroke-linejoin:round;stroke-dasharray:4.6635;}
	.st7{fill:none;stroke:#000000;stroke-width:2;stroke-linecap:round;stroke-linejoin:round;stroke-dasharray:12.8702,4.2901;}
	.st8{fill:none;stroke:#000000;stroke-width:2;stroke-linecap:round;stroke-linejoin:round;stroke-dasharray:8.4419,2.814;}
	.st9{fill:none;stroke:#000000;stroke-width:2;stroke-linecap:round;stroke-linejoin:round;stroke-dasharray:11.2908,3.7636;}
	.st10{fill:none;stroke:#000000;stroke-width:2;stroke-linecap:round;stroke-linejoin:round;stroke-dasharray:8.9003,2.9668;}
	.st11{fill:none;stroke:#000000;stroke-width:2;stroke-linecap:round;stroke-linejoin:round;stroke-dasharray:6.753,2.251;}
	.st12{fill:none;stroke:#000000;stroke-width:2;stroke-linecap:round;stroke-linejoin:round;stroke-dasharray:11.3525,3.7842;}
	.st13{fill:none;stroke:#000000;stroke-width:2;stroke-linecap:round;stroke-linejoin:round;stroke-dasharray:13.6549,4.5516;}
	.st14{fill:none;stroke:#000000;stroke-width:2;stroke-linecap:round;stroke-linejoin:round;stroke-dasharray:7.8218,2.6073;}
	.st15{fill:none;stroke:#000000;stroke-width:2;stroke-linecap:round;stroke-linejoin:round;stroke-dasharray:10.013,3.3377;}
	.st16{fill:none;stroke:#000000;stroke-width:2;stroke-linecap:round;stroke-linejoin:round;stroke-dasharray:3.2499;}
	.st17{fill:none;stroke:#000000;stroke-width:2;stroke-linecap:round;stroke-linejoin:round;stroke-dasharray:8.217,2.739;}
	.st18{fill:none;stroke:#000000;stroke-width:2;stroke-linecap:round;stroke-linejoin:round;stroke-dasharray:7.9698,2.6566;}
</style>
<g>
	<polygon class="st0" points="60.439,81.875 56.726,88.88 10.926,64.601 27.854,32.667 73.654,56.946 	"/>
	<line class="st0" x1="36.312" y1="61.503" x2="10.926" y2="64.601"/>
	<line class="st0" x1="44.865" y1="65.787" x2="56.242" y2="87.935"/>
	<path class="st0" d="M73.654,56.946L44.01,66.05c-2.98,0.915-6.137-0.759-7.052-3.738l-9.104-29.645"/>
	<g>
		<path class="st0" d="M47.355,51.684c3.304-1.953,6.157,2.045,3.67,4.925c-2.434,2.818-7.502,2.304-7.502,2.304
			s-3.27-3.906-2.304-7.502C42.207,47.736,47.117,47.853,47.355,51.684z"/>
	</g>
	<polyline class="st0" points="33.56,35.442 30.696,21.259 81.509,11 87.093,38.657 88.662,46.428 63.952,51.417 	"/>
	<line class="st0" x1="55.518" y1="38.198" x2="49.736" y2="44.248"/>
	<line class="st0" x1="64.849" y1="36.089" x2="87.688" y2="46.005"/>
	<path class="st0" d="M81.509,11L64.354,36.834c-1.724,2.597-5.227,3.304-7.824,1.58L30.696,21.259"/>
	<g>
		<path class="st0" d="M57.834,23.603c1.317-3.605,6.058-2.322,5.96,1.482c-0.096,3.722-4.341,6.538-4.341,6.538
			s-5.005-0.948-6.537-4.341C51.349,23.814,55.221,20.791,57.834,23.603z"/>
	</g>
</g>
</svg>
