<?xml version="1.0" encoding="utf-8"?>
<!-- Generator: Adobe Illustrator 21.1.0, SVG Export Plug-In . SVG Version: 6.00 Build 0)  -->
<svg version="1.1" id="Layer_1" xmlns="http://www.w3.org/2000/svg" xmlns:xlink="http://www.w3.org/1999/xlink" x="0px" y="0px"
	 viewBox="0 0 100 100" style="enable-background:new 0 0 100 100;" xml:space="preserve">
<style type="text/css">
	.st0{fill:none;stroke:#000000;stroke-width:2;stroke-linecap:round;stroke-linejoin:round;stroke-miterlimit:10;}
	.st1{fill:none;stroke:#000000;stroke-width:2;stroke-miterlimit:10;}
	.st2{fill:none;stroke:#000000;stroke-width:2;stroke-linecap:round;stroke-miterlimit:10;}
	.st3{fill:none;stroke:#000000;stroke-width:2;stroke-linecap:round;stroke-linejoin:round;}
	.st4{fill:none;stroke:#000000;stroke-width:2;stroke-linecap:round;stroke-linejoin:round;stroke-dasharray:12.6718,4.2239;}
	.st5{fill:none;stroke:#000000;stroke-width:2;stroke-linecap:round;stroke-linejoin:round;stroke-dasharray:8.6895,2.8965;}
	.st6{fill:none;stroke:#000000;stroke-width:2;stroke-linecap:round;stroke-linejoin:round;stroke-dasharray:4.6635;}
	.st7{fill:none;stroke:#000000;stroke-width:2;stroke-linecap:round;stroke-linejoin:round;stroke-dasharray:12.8702,4.2901;}
	.st8{fill:none;stroke:#000000;stroke-width:2;stroke-linecap:round;stroke-linejoin:round;stroke-dasharray:8.4419,2.814;}
	.st9{fill:none;stroke:#000000;stroke-width:2;stroke-linecap:round;stroke-linejoin:round;stroke-dasharray:11.2908,3.7636;}
	.st10{fill:none;stroke:#000000;stroke-width:2;stroke-linecap:round;stroke-linejoin:round;stroke-dasharray:8.9003,2.9668;}
	.st11{fill:none;stroke:#000000;stroke-width:2;stroke-linecap:round;stroke-linejoin:round;stroke-dasharray:6.753,2.251;}
	.st12{fill:none;stroke:#000000;stroke-width:2;stroke-linecap:round;stroke-linejoin:round;stroke-dasharray:11.3525,3.7842;}
	.st13{fill:none;stroke:#000000;stroke-width:2;stroke-linecap:round;stroke-linejoin:round;stroke-dasharray:13.6549,4.5516;}
	.st14{fill:none;stroke:#000000;stroke-width:2;stroke-linecap:round;stroke-linejoin:round;stroke-dasharray:7.8218,2.6073;}
	.st15{fill:none;stroke:#000000;stroke-width:2;stroke-linecap:round;stroke-linejoin:round;stroke-dasharray:10.013,3.3377;}
	.st16{fill:none;stroke:#000000;stroke-width:2;stroke-linecap:round;stroke-linejoin:round;stroke-dasharray:3.2499;}
	.st17{fill:none;stroke:#000000;stroke-width:2;stroke-linecap:round;stroke-linejoin:round;stroke-dasharray:8.217,2.739;}
	.st18{fill:none;stroke:#000000;stroke-width:2;stroke-linecap:round;stroke-linejoin:round;stroke-dasharray:7.9698,2.6566;}
</style>
<g>
	<g>
		<path class="st0" d="M54.317,49.016c1.137-2.779,4.805-1.633,4.615,1.337c-0.187,2.907-3.589,4.98-3.589,4.98
			s-3.884-0.891-4.98-3.589C49.241,48.986,52.358,46.739,54.317,49.016z"/>
	</g>
	<polygon class="st0" points="64.335,59.66 47.836,62.208 42.97,30.686 50.169,22.612 59.469,28.139 	"/>
	<polyline class="st0" points="70.142,16.696 89.125,16.696 89.125,89 11.125,89 11.125,16.696 30.353,16.696 	"/>
	<line class="st0" x1="11.687" y1="46.89" x2="44.893" y2="46.89"/>
	<line class="st0" x1="62.875" y1="46.89" x2="88.5" y2="46.89"/>
	<line class="st0" x1="62.677" y1="59.917" x2="88.5" y2="59.917"/>
	<line class="st0" x1="47.188" y1="59.917" x2="11.687" y2="59.917"/>
	<path class="st0" d="M46.153,21.107l-11.81,1.477c-2.154,0.269-4.057-1.41-4.057-3.582v-4.134c0-2.171,1.903-3.851,4.057-3.581
		l11.81,1.477V21.107z"/>
	<path class="st0" d="M54.076,12.764l11.81-1.477c2.154-0.269,4.057,1.41,4.057,3.581v4.134c0,2.171-1.903,3.851-4.057,3.582
		l-11.81-1.477V12.764z"/>
	<path class="st0" d="M51.905,22.354h-3.58c-1.199,0-2.171-0.972-2.171-2.171v-6.495c0-1.199,0.972-2.171,2.171-2.171h3.58
		c1.199,0,2.171,0.972,2.171,2.171v6.495C54.076,21.382,53.104,22.354,51.905,22.354z"/>
</g>
</svg>
