<?xml version="1.0" encoding="utf-8"?>
<!-- Generator: Adobe Illustrator 21.1.0, SVG Export Plug-In . SVG Version: 6.00 Build 0)  -->
<svg version="1.1" id="Layer_1" xmlns="http://www.w3.org/2000/svg" xmlns:xlink="http://www.w3.org/1999/xlink" x="0px" y="0px"
	 viewBox="0 0 100 100" style="enable-background:new 0 0 100 100;" xml:space="preserve">
<style type="text/css">
	.st0{fill:none;stroke:#000000;stroke-width:2;stroke-linecap:round;stroke-linejoin:round;stroke-miterlimit:10;}
	.st1{fill:none;stroke:#000000;stroke-width:2;stroke-miterlimit:10;}
	.st2{fill:none;stroke:#000000;stroke-width:2;stroke-linecap:round;stroke-miterlimit:10;}
	.st3{fill:none;stroke:#000000;stroke-width:2;stroke-linecap:round;stroke-linejoin:round;}
	.st4{fill:none;stroke:#000000;stroke-width:2;stroke-linecap:round;stroke-linejoin:round;stroke-dasharray:12.6718,4.2239;}
	.st5{fill:none;stroke:#000000;stroke-width:2;stroke-linecap:round;stroke-linejoin:round;stroke-dasharray:8.6895,2.8965;}
	.st6{fill:none;stroke:#000000;stroke-width:2;stroke-linecap:round;stroke-linejoin:round;stroke-dasharray:4.6635;}
	.st7{fill:none;stroke:#000000;stroke-width:2;stroke-linecap:round;stroke-linejoin:round;stroke-dasharray:12.8702,4.2901;}
	.st8{fill:none;stroke:#000000;stroke-width:2;stroke-linecap:round;stroke-linejoin:round;stroke-dasharray:8.4419,2.814;}
	.st9{fill:none;stroke:#000000;stroke-width:2;stroke-linecap:round;stroke-linejoin:round;stroke-dasharray:11.2908,3.7636;}
	.st10{fill:none;stroke:#000000;stroke-width:2;stroke-linecap:round;stroke-linejoin:round;stroke-dasharray:8.9003,2.9668;}
	.st11{fill:none;stroke:#000000;stroke-width:2;stroke-linecap:round;stroke-linejoin:round;stroke-dasharray:6.753,2.251;}
	.st12{fill:none;stroke:#000000;stroke-width:2;stroke-linecap:round;stroke-linejoin:round;stroke-dasharray:11.3525,3.7842;}
	.st13{fill:none;stroke:#000000;stroke-width:2;stroke-linecap:round;stroke-linejoin:round;stroke-dasharray:13.6549,4.5516;}
	.st14{fill:none;stroke:#000000;stroke-width:2;stroke-linecap:round;stroke-linejoin:round;stroke-dasharray:7.8218,2.6073;}
	.st15{fill:none;stroke:#000000;stroke-width:2;stroke-linecap:round;stroke-linejoin:round;stroke-dasharray:10.013,3.3377;}
	.st16{fill:none;stroke:#000000;stroke-width:2;stroke-linecap:round;stroke-linejoin:round;stroke-dasharray:3.2499;}
	.st17{fill:none;stroke:#000000;stroke-width:2;stroke-linecap:round;stroke-linejoin:round;stroke-dasharray:8.217,2.739;}
	.st18{fill:none;stroke:#000000;stroke-width:2;stroke-linecap:round;stroke-linejoin:round;stroke-dasharray:7.9698,2.6566;}
</style>
<g>
	<polyline class="st0" points="13.131,40.701 13.131,89 86.866,89 86.866,40.701 	"/>
	<line class="st0" x1="38.076" y1="40.701" x2="38.076" y2="88.659"/>
	<line class="st0" x1="61.922" y1="88.659" x2="61.922" y2="40.701"/>
	<rect x="18.128" y="76.062" class="st0" width="5.376" height="8.08"/>
	<rect x="27.704" y="76.062" class="st0" width="5.375" height="8.08"/>
	<rect x="66.583" y="76.062" class="st0" width="5.376" height="8.08"/>
	<rect x="76.16" y="76.062" class="st0" width="5.375" height="8.08"/>
	<polygon class="st0" points="89.125,36.422 11.125,36.422 13.156,11.001 87.094,11.001 	"/>
	<line class="st0" x1="38.438" y1="84.143" x2="61.514" y2="84.143"/>
	<line class="st1" x1="20.703" y1="11.001" x2="20.703" y2="36.77"/>
	<line class="st1" x1="30.67" y1="11.001" x2="30.67" y2="36.77"/>
	<line class="st1" x1="40.375" y1="11.001" x2="40.375" y2="36.77"/>
	<line class="st1" x1="50.11" y1="10.842" x2="50.11" y2="36.611"/>
	<line class="st1" x1="60.052" y1="11.001" x2="60.052" y2="36.77"/>
	<line class="st1" x1="69.49" y1="11.001" x2="69.49" y2="36.77"/>
	<line class="st1" x1="79.375" y1="11.001" x2="79.375" y2="36.77"/>
	<path class="st0" d="M20.875,36.533c0,2.652-2.183,4.801-4.875,4.801c-2.692,0-4.875-2.15-4.875-4.801"/>
	<path class="st0" d="M30.625,36.533c0,2.652-2.183,4.801-4.875,4.801c-2.692,0-4.875-2.15-4.875-4.801"/>
	<path class="st0" d="M40.375,36.533c0,2.652-2.183,4.801-4.875,4.801c-2.692,0-4.875-2.15-4.875-4.801"/>
	<path class="st0" d="M50.125,36.533c0,2.652-2.183,4.801-4.875,4.801c-2.692,0-4.875-2.15-4.875-4.801"/>
	<path class="st0" d="M59.875,36.533c0,2.652-2.183,4.801-4.875,4.801c-2.692,0-4.875-2.15-4.875-4.801"/>
	<path class="st0" d="M69.625,36.533c0,2.652-2.183,4.801-4.875,4.801c-2.692,0-4.875-2.15-4.875-4.801"/>
	<path class="st0" d="M79.375,36.533c0,2.652-2.183,4.801-4.875,4.801c-2.692,0-4.875-2.15-4.875-4.801"/>
	<path class="st0" d="M89.125,36.533c0,2.652-2.183,4.801-4.875,4.801c-2.692,0-4.875-2.15-4.875-4.801"/>
	<line class="st0" x1="19.233" y1="64.724" x2="32.267" y2="64.724"/>
	<line class="st0" x1="25.75" y1="64.724" x2="25.75" y2="70.653"/>
	<line class="st0" x1="67.877" y1="64.724" x2="80.911" y2="64.724"/>
	<line class="st0" x1="74.394" y1="64.724" x2="74.394" y2="70.653"/>
	<g>
		<path class="st0" d="M50.057,51.647c2.078-3.338,6.634-1.098,5.754,2.684c-0.861,3.701-5.754,5.658-5.754,5.658
			s-4.893-1.957-5.754-5.658C43.423,50.549,47.978,48.309,50.057,51.647z"/>
	</g>
	<line class="st0" x1="13.518" y1="71.206" x2="37.489" y2="71.206"/>
	<line class="st0" x1="62.409" y1="71.206" x2="86.379" y2="71.206"/>
</g>
</svg>
