<?xml version="1.0" encoding="utf-8"?>
<!-- Generator: Adobe Illustrator 21.1.0, SVG Export Plug-In . SVG Version: 6.00 Build 0)  -->
<svg version="1.1" id="Layer_1" xmlns="http://www.w3.org/2000/svg" xmlns:xlink="http://www.w3.org/1999/xlink" x="0px" y="0px"
	 viewBox="0 0 100 100" style="enable-background:new 0 0 100 100;" xml:space="preserve">
<style type="text/css">
	.st0{fill:none;stroke:#000000;stroke-width:2;stroke-linecap:round;stroke-linejoin:round;stroke-miterlimit:10;}
	.st1{fill:none;stroke:#000000;stroke-width:2;stroke-miterlimit:10;}
	.st2{fill:none;stroke:#000000;stroke-width:2;stroke-linecap:round;stroke-miterlimit:10;}
	.st3{fill:none;stroke:#000000;stroke-width:2;stroke-linecap:round;stroke-linejoin:round;}
	.st4{fill:none;stroke:#000000;stroke-width:2;stroke-linecap:round;stroke-linejoin:round;stroke-dasharray:12.6718,4.2239;}
	.st5{fill:none;stroke:#000000;stroke-width:2;stroke-linecap:round;stroke-linejoin:round;stroke-dasharray:8.6895,2.8965;}
	.st6{fill:none;stroke:#000000;stroke-width:2;stroke-linecap:round;stroke-linejoin:round;stroke-dasharray:4.6635;}
	.st7{fill:none;stroke:#000000;stroke-width:2;stroke-linecap:round;stroke-linejoin:round;stroke-dasharray:12.8702,4.2901;}
	.st8{fill:none;stroke:#000000;stroke-width:2;stroke-linecap:round;stroke-linejoin:round;stroke-dasharray:8.4419,2.814;}
	.st9{fill:none;stroke:#000000;stroke-width:2;stroke-linecap:round;stroke-linejoin:round;stroke-dasharray:11.2908,3.7636;}
	.st10{fill:none;stroke:#000000;stroke-width:2;stroke-linecap:round;stroke-linejoin:round;stroke-dasharray:8.9003,2.9668;}
	.st11{fill:none;stroke:#000000;stroke-width:2;stroke-linecap:round;stroke-linejoin:round;stroke-dasharray:6.753,2.251;}
	.st12{fill:none;stroke:#000000;stroke-width:2;stroke-linecap:round;stroke-linejoin:round;stroke-dasharray:11.3525,3.7842;}
	.st13{fill:none;stroke:#000000;stroke-width:2;stroke-linecap:round;stroke-linejoin:round;stroke-dasharray:13.6549,4.5516;}
	.st14{fill:none;stroke:#000000;stroke-width:2;stroke-linecap:round;stroke-linejoin:round;stroke-dasharray:7.8218,2.6073;}
	.st15{fill:none;stroke:#000000;stroke-width:2;stroke-linecap:round;stroke-linejoin:round;stroke-dasharray:10.013,3.3377;}
	.st16{fill:none;stroke:#000000;stroke-width:2;stroke-linecap:round;stroke-linejoin:round;stroke-dasharray:3.2499;}
	.st17{fill:none;stroke:#000000;stroke-width:2;stroke-linecap:round;stroke-linejoin:round;stroke-dasharray:8.217,2.739;}
	.st18{fill:none;stroke:#000000;stroke-width:2;stroke-linecap:round;stroke-linejoin:round;stroke-dasharray:7.9698,2.6566;}
</style>
<g>
	<g>
		<path class="st0" d="M45.562,36.915c5.014-8.189,16.006-2.694,13.882,6.585c-2.078,9.08-13.882,13.882-13.882,13.882
			S33.757,52.58,31.68,43.5C29.557,34.221,40.547,28.726,45.562,36.915z"/>
	</g>
	<circle class="st0" cx="76.991" cy="74.561" r="5.472"/>
	<circle class="st0" cx="85.794" cy="85.895" r="3.331"/>
	<path class="st0" d="M49.59,12.511L49.59,12.511c3.378-2.94,8.666-1.387,9.918,2.912v0c0.856,2.939,3.748,4.797,6.777,4.355l0,0
		c4.431-0.647,8.04,3.518,6.769,7.812l0,0c-0.869,2.935,0.559,6.062,3.346,7.327l0,0c4.078,1.851,4.862,7.306,1.471,10.231l0,0
		c-2.318,2-2.807,5.402-1.146,7.974h0c2.429,3.762,0.14,8.775-4.294,9.403l0,0c-3.031,0.429-5.282,3.027-5.275,6.088l0,0
		c0.01,4.478-4.626,7.458-8.696,5.588l0,0c-2.782-1.278-6.08-0.309-7.729,2.27l0,0c-2.413,3.773-7.924,3.773-10.337,0l0,0
		c-1.649-2.579-4.947-3.547-7.729-2.27l0,0c-4.069,1.869-8.706-1.11-8.696-5.588l0,0c0.007-3.061-2.244-5.659-5.275-6.088l0,0
		c-4.434-0.628-6.723-5.641-4.294-9.403h0c1.661-2.572,1.171-5.974-1.146-7.974l0,0c-3.391-2.925-2.606-8.38,1.471-10.231l0,0
		c2.787-1.266,4.215-4.392,3.346-7.327l0,0c-1.271-4.294,2.338-8.459,6.769-7.812l0,0c3.029,0.442,5.921-1.416,6.777-4.355v0
		c1.252-4.3,6.54-5.852,9.918-2.912l0,0C43.844,14.521,47.281,14.521,49.59,12.511z"/>
</g>
</svg>
