<?xml version="1.0" encoding="utf-8"?>
<!-- Generator: Adobe Illustrator 21.1.0, SVG Export Plug-In . SVG Version: 6.00 Build 0)  -->
<svg version="1.1" id="Layer_1" xmlns="http://www.w3.org/2000/svg" xmlns:xlink="http://www.w3.org/1999/xlink" x="0px" y="0px"
	 viewBox="0 0 100 100" style="enable-background:new 0 0 100 100;" xml:space="preserve">
<style type="text/css">
	.st0{fill:none;stroke:#000000;stroke-width:2;stroke-linecap:round;stroke-linejoin:round;stroke-miterlimit:10;}
	.st1{fill:none;stroke:#000000;stroke-width:2;stroke-miterlimit:10;}
	.st2{fill:none;stroke:#000000;stroke-width:2;stroke-linecap:round;stroke-miterlimit:10;}
	.st3{fill:none;stroke:#000000;stroke-width:2;stroke-linecap:round;stroke-linejoin:round;}
	.st4{fill:none;stroke:#000000;stroke-width:2;stroke-linecap:round;stroke-linejoin:round;stroke-dasharray:12.6718,4.2239;}
	.st5{fill:none;stroke:#000000;stroke-width:2;stroke-linecap:round;stroke-linejoin:round;stroke-dasharray:8.6895,2.8965;}
	.st6{fill:none;stroke:#000000;stroke-width:2;stroke-linecap:round;stroke-linejoin:round;stroke-dasharray:4.6635;}
	.st7{fill:none;stroke:#000000;stroke-width:2;stroke-linecap:round;stroke-linejoin:round;stroke-dasharray:12.8702,4.2901;}
	.st8{fill:none;stroke:#000000;stroke-width:2;stroke-linecap:round;stroke-linejoin:round;stroke-dasharray:8.4419,2.814;}
	.st9{fill:none;stroke:#000000;stroke-width:2;stroke-linecap:round;stroke-linejoin:round;stroke-dasharray:11.2908,3.7636;}
	.st10{fill:none;stroke:#000000;stroke-width:2;stroke-linecap:round;stroke-linejoin:round;stroke-dasharray:8.9003,2.9668;}
	.st11{fill:none;stroke:#000000;stroke-width:2;stroke-linecap:round;stroke-linejoin:round;stroke-dasharray:6.753,2.251;}
	.st12{fill:none;stroke:#000000;stroke-width:2;stroke-linecap:round;stroke-linejoin:round;stroke-dasharray:11.3525,3.7842;}
	.st13{fill:none;stroke:#000000;stroke-width:2;stroke-linecap:round;stroke-linejoin:round;stroke-dasharray:13.6549,4.5516;}
	.st14{fill:none;stroke:#000000;stroke-width:2;stroke-linecap:round;stroke-linejoin:round;stroke-dasharray:7.8218,2.6073;}
	.st15{fill:none;stroke:#000000;stroke-width:2;stroke-linecap:round;stroke-linejoin:round;stroke-dasharray:10.013,3.3377;}
	.st16{fill:none;stroke:#000000;stroke-width:2;stroke-linecap:round;stroke-linejoin:round;stroke-dasharray:3.2499;}
	.st17{fill:none;stroke:#000000;stroke-width:2;stroke-linecap:round;stroke-linejoin:round;stroke-dasharray:8.217,2.739;}
	.st18{fill:none;stroke:#000000;stroke-width:2;stroke-linecap:round;stroke-linejoin:round;stroke-dasharray:7.9698,2.6566;}
</style>
<g>
	
		<ellipse transform="matrix(0.2258 -0.9742 0.9742 0.2258 29.6662 68.7308)" class="st0" cx="58.073" cy="15.702" rx="4.616" ry="4.616"/>
	
		<ellipse transform="matrix(0.5245 -0.8514 0.8514 0.5245 15.5525 67.7912)" class="st0" cx="68.465" cy="19.972" rx="4.616" ry="4.616"/>
	
		<ellipse transform="matrix(0.7685 -0.6399 0.6399 0.7685 0.3274 55.57)" class="st0" cx="76.954" cy="27.333" rx="4.616" ry="4.616"/>
	
		<ellipse transform="matrix(0.9323 -0.3616 0.3616 0.9323 -7.7913 32.3915)" class="st0" cx="82.655" cy="37.014" rx="4.616" ry="4.616"/>
	
		<ellipse transform="matrix(0.999 -0.0456 0.0456 0.999 -2.0999 3.9229)" class="st0" cx="84.973" cy="48.008" rx="4.616" ry="4.616"/>
	
		<ellipse transform="matrix(0.2752 -0.9614 0.9614 0.2752 3.7591 123.3216)" class="st0" cx="83.666" cy="59.168" rx="4.616" ry="4.616"/>
	
		<ellipse transform="matrix(0.5672 -0.8236 0.8236 0.5672 -22.9638 94.9564)" class="st0" cx="78.871" cy="69.329" rx="4.616" ry="4.616"/>
	
		<ellipse transform="matrix(0.8001 -0.5998 0.5998 0.8001 -32.2369 58.1148)" class="st0" cx="71.087" cy="77.431" rx="4.616" ry="4.616"/>
	
		<ellipse transform="matrix(0.9496 -0.3135 0.3135 0.9496 -22.8244 23.3304)" class="st0" cx="61.126" cy="82.63" rx="4.616" ry="4.616"/>
	<ellipse transform="matrix(0.0055 -1 1 0.0055 -34.6278 133.95)" class="st0" cx="50.028" cy="84.384" rx="4.616" ry="4.616"/>
	
		<ellipse transform="matrix(0.3239 -0.9461 0.9461 0.3239 -51.7265 92.6352)" class="st0" cx="38.95" cy="82.509" rx="4.616" ry="4.616"/>
	
		<ellipse transform="matrix(0.6085 -0.7935 0.7935 0.6085 -49.8897 53.2709)" class="st0" cx="29.048" cy="77.201" rx="4.616" ry="4.616"/>
	
		<ellipse transform="matrix(0.8297 -0.5582 0.5582 0.8297 -34.8861 23.6706)" class="st0" cx="21.353" cy="69.014" rx="4.616" ry="4.616"/>
	
		<ellipse transform="matrix(0.9643 -0.2646 0.2646 0.9643 -14.9666 6.5076)" class="st0" cx="16.669" cy="58.801" rx="4.616" ry="4.616"/>
	
		<ellipse transform="matrix(0.0565 -0.9984 0.9984 0.0565 -32.9426 60.3955)" class="st0" cx="15.484" cy="47.628" rx="4.616" ry="4.616"/>
	
		<ellipse transform="matrix(0.3718 -0.9283 0.9283 0.3718 -22.773 39.6685)" class="st0" cx="17.922" cy="36.66" rx="4.616" ry="4.616"/>
	
		<ellipse transform="matrix(0.6483 -0.7614 0.7614 0.6483 -12.2431 27.5793)" class="st0" cx="23.729" cy="27.041" rx="4.616" ry="4.616"/>
	
		<ellipse transform="matrix(0.8571 -0.5151 0.5151 0.8571 -5.5713 19.4621)" class="st0" cx="32.298" cy="19.774" rx="4.616" ry="4.616"/>
	
		<ellipse transform="matrix(0.9766 -0.2151 0.2151 0.9766 -2.3588 9.5563)" class="st0" cx="42.737" cy="15.618" rx="4.616" ry="4.616"/>
	<line class="st0" x1="47.7" y1="15.158" x2="53.11" y2="15.158"/>
</g>
</svg>
