<?xml version="1.0" encoding="utf-8"?>
<!-- Generator: Adobe Illustrator 21.1.0, SVG Export Plug-In . SVG Version: 6.00 Build 0)  -->
<svg version="1.1" id="Layer_1" xmlns="http://www.w3.org/2000/svg" xmlns:xlink="http://www.w3.org/1999/xlink" x="0px" y="0px"
	 viewBox="0 0 100 100" style="enable-background:new 0 0 100 100;" xml:space="preserve">
<style type="text/css">
	.st0{fill:none;stroke:#000000;stroke-width:2;stroke-linecap:round;stroke-linejoin:round;stroke-miterlimit:10;}
	.st1{fill:none;stroke:#000000;stroke-width:2;stroke-miterlimit:10;}
	.st2{fill:none;stroke:#000000;stroke-width:2;stroke-linecap:round;stroke-miterlimit:10;}
	.st3{fill:none;stroke:#000000;stroke-width:2;stroke-linecap:round;stroke-linejoin:round;}
	.st4{fill:none;stroke:#000000;stroke-width:2;stroke-linecap:round;stroke-linejoin:round;stroke-dasharray:12.6718,4.2239;}
	.st5{fill:none;stroke:#000000;stroke-width:2;stroke-linecap:round;stroke-linejoin:round;stroke-dasharray:8.6895,2.8965;}
	.st6{fill:none;stroke:#000000;stroke-width:2;stroke-linecap:round;stroke-linejoin:round;stroke-dasharray:4.6635;}
	.st7{fill:none;stroke:#000000;stroke-width:2;stroke-linecap:round;stroke-linejoin:round;stroke-dasharray:12.8702,4.2901;}
	.st8{fill:none;stroke:#000000;stroke-width:2;stroke-linecap:round;stroke-linejoin:round;stroke-dasharray:8.4419,2.814;}
	.st9{fill:none;stroke:#000000;stroke-width:2;stroke-linecap:round;stroke-linejoin:round;stroke-dasharray:11.2908,3.7636;}
	.st10{fill:none;stroke:#000000;stroke-width:2;stroke-linecap:round;stroke-linejoin:round;stroke-dasharray:8.9003,2.9668;}
	.st11{fill:none;stroke:#000000;stroke-width:2;stroke-linecap:round;stroke-linejoin:round;stroke-dasharray:6.753,2.251;}
	.st12{fill:none;stroke:#000000;stroke-width:2;stroke-linecap:round;stroke-linejoin:round;stroke-dasharray:11.3525,3.7842;}
	.st13{fill:none;stroke:#000000;stroke-width:2;stroke-linecap:round;stroke-linejoin:round;stroke-dasharray:13.6549,4.5516;}
	.st14{fill:none;stroke:#000000;stroke-width:2;stroke-linecap:round;stroke-linejoin:round;stroke-dasharray:7.8218,2.6073;}
	.st15{fill:none;stroke:#000000;stroke-width:2;stroke-linecap:round;stroke-linejoin:round;stroke-dasharray:10.013,3.3377;}
	.st16{fill:none;stroke:#000000;stroke-width:2;stroke-linecap:round;stroke-linejoin:round;stroke-dasharray:3.2499;}
	.st17{fill:none;stroke:#000000;stroke-width:2;stroke-linecap:round;stroke-linejoin:round;stroke-dasharray:8.217,2.739;}
	.st18{fill:none;stroke:#000000;stroke-width:2;stroke-linecap:round;stroke-linejoin:round;stroke-dasharray:7.9698,2.6566;}
</style>
<g>
	<g>
		<path class="st0" d="M36.688,21.984c3.019-4.696,9.635-1.545,8.357,3.777c-1.251,5.207-8.357,7.961-8.357,7.961
			s-7.107-2.754-8.357-7.961C27.052,20.439,33.668,17.287,36.688,21.984z"/>
	</g>
	<g>
		<path class="st0" d="M63.042,21.984c3.019-4.696,9.635-1.545,8.357,3.777c-1.251,5.207-8.357,7.961-8.357,7.961
			s-7.107-2.754-8.357-7.961C53.406,20.439,60.023,17.287,63.042,21.984z"/>
	</g>
	<g>
		<path class="st0" d="M36.688,45.567c3.019-4.696,9.635-1.545,8.357,3.777c-1.251,5.207-8.357,7.961-8.357,7.961
			s-7.107-2.754-8.357-7.961C27.052,44.022,33.668,40.871,36.688,45.567z"/>
	</g>
	<g>
		<path class="st0" d="M63.042,45.567c3.019-4.696,9.635-1.545,8.357,3.777c-1.251,5.207-8.357,7.961-8.357,7.961
			s-7.107-2.754-8.357-7.961C53.406,44.022,60.023,40.871,63.042,45.567z"/>
	</g>
	<g>
		<path class="st0" d="M36.688,69.15c3.019-4.696,9.635-1.545,8.357,3.777c-1.251,5.207-8.357,7.961-8.357,7.961
			s-7.107-2.754-8.357-7.961C27.052,67.605,33.668,64.454,36.688,69.15z"/>
	</g>
	<g>
		<path class="st0" d="M63.042,69.15c3.019-4.696,9.635-1.545,8.357,3.777c-1.251,5.207-8.357,7.961-8.357,7.961
			s-7.107-2.754-8.357-7.961C53.406,67.605,60.023,64.454,63.042,69.15z"/>
	</g>
	<rect x="20.167" y="11" class="st0" width="59.833" height="78"/>
</g>
</svg>
