<?xml version="1.0" encoding="utf-8"?>
<!-- Generator: Adobe Illustrator 21.1.0, SVG Export Plug-In . SVG Version: 6.00 Build 0)  -->
<svg version="1.1" id="Layer_1" xmlns="http://www.w3.org/2000/svg" xmlns:xlink="http://www.w3.org/1999/xlink" x="0px" y="0px"
	 viewBox="0 0 100 100" style="enable-background:new 0 0 100 100;" xml:space="preserve">
<style type="text/css">
	.st0{fill:none;stroke:#000000;stroke-width:2;stroke-linecap:round;stroke-linejoin:round;stroke-miterlimit:10;}
	.st1{fill:none;stroke:#000000;stroke-width:2;stroke-miterlimit:10;}
	.st2{fill:none;stroke:#000000;stroke-width:2;stroke-linecap:round;stroke-miterlimit:10;}
	.st3{fill:none;stroke:#000000;stroke-width:2;stroke-linecap:round;stroke-linejoin:round;}
	.st4{fill:none;stroke:#000000;stroke-width:2;stroke-linecap:round;stroke-linejoin:round;stroke-dasharray:12.6718,4.2239;}
	.st5{fill:none;stroke:#000000;stroke-width:2;stroke-linecap:round;stroke-linejoin:round;stroke-dasharray:8.6895,2.8965;}
	.st6{fill:none;stroke:#000000;stroke-width:2;stroke-linecap:round;stroke-linejoin:round;stroke-dasharray:4.6635;}
	.st7{fill:none;stroke:#000000;stroke-width:2;stroke-linecap:round;stroke-linejoin:round;stroke-dasharray:12.8702,4.2901;}
	.st8{fill:none;stroke:#000000;stroke-width:2;stroke-linecap:round;stroke-linejoin:round;stroke-dasharray:8.4419,2.814;}
	.st9{fill:none;stroke:#000000;stroke-width:2;stroke-linecap:round;stroke-linejoin:round;stroke-dasharray:11.2908,3.7636;}
	.st10{fill:none;stroke:#000000;stroke-width:2;stroke-linecap:round;stroke-linejoin:round;stroke-dasharray:8.9003,2.9668;}
	.st11{fill:none;stroke:#000000;stroke-width:2;stroke-linecap:round;stroke-linejoin:round;stroke-dasharray:6.753,2.251;}
	.st12{fill:none;stroke:#000000;stroke-width:2;stroke-linecap:round;stroke-linejoin:round;stroke-dasharray:11.3525,3.7842;}
	.st13{fill:none;stroke:#000000;stroke-width:2;stroke-linecap:round;stroke-linejoin:round;stroke-dasharray:13.6549,4.5516;}
	.st14{fill:none;stroke:#000000;stroke-width:2;stroke-linecap:round;stroke-linejoin:round;stroke-dasharray:7.8218,2.6073;}
	.st15{fill:none;stroke:#000000;stroke-width:2;stroke-linecap:round;stroke-linejoin:round;stroke-dasharray:10.013,3.3377;}
	.st16{fill:none;stroke:#000000;stroke-width:2;stroke-linecap:round;stroke-linejoin:round;stroke-dasharray:3.2499;}
	.st17{fill:none;stroke:#000000;stroke-width:2;stroke-linecap:round;stroke-linejoin:round;stroke-dasharray:8.217,2.739;}
	.st18{fill:none;stroke:#000000;stroke-width:2;stroke-linecap:round;stroke-linejoin:round;stroke-dasharray:7.9698,2.6566;}
</style>
<g>
	<path class="st0" d="M38.688,25.347l7.278,1.95c0.508,0.136,1.029-0.165,1.165-0.673L47.62,24.8
		c0.136-0.507-0.165-1.029-0.673-1.165l-7.278-1.95c-0.507-0.136-1.029,0.165-1.165,0.673l-0.489,1.824
		C37.88,24.689,38.181,25.211,38.688,25.347z"/>
	<path class="st0" d="M37.981,28.568l0.848-3.167l6.776,1.816l-0.806,3.009c-1.404,5.238-1.316,10.719-0.106,16.006
		c0.976,4.267,0.602,10.595-0.19,13.547l-7.429,27.723c-0.289,1.078-1.397,1.717-2.474,1.429l-16.886-4.525
		c-1.078-0.289-1.717-1.397-1.429-2.474l7.428-27.724c0.777-2.901,3.563-8.535,6.481-11.75
		C33.818,38.466,36.585,33.775,37.981,28.568z"/>
	<line class="st0" x1="43.418" y1="38.721" x2="35.335" y2="36.555"/>
	<path class="st1" d="M44.534,59.664c-1.228-1.565-2.243-3.242-5.054-3.995c-5.011-1.343-6.547,2.722-11.56,1.379
		c-1.941-0.52-3.026-1.482-3.915-2.544"/>
	<path class="st0" d="M61.719,25.347l-7.278,1.95c-0.507,0.136-1.029-0.165-1.165-0.673L52.787,24.8
		c-0.136-0.507,0.165-1.029,0.673-1.165l7.278-1.95c0.508-0.136,1.029,0.165,1.165,0.673l0.489,1.824
		C62.528,24.689,62.227,25.211,61.719,25.347z"/>
	<path class="st0" d="M62.427,28.568l-0.848-3.167l-6.776,1.816l0.806,3.009c1.404,5.238,1.316,10.719,0.106,16.006
		c-0.976,4.267-0.601,10.595,0.19,13.547l7.429,27.723c0.289,1.078,1.397,1.717,2.474,1.429l16.886-4.525
		c1.078-0.289,1.717-1.397,1.429-2.474l-7.429-27.724c-0.777-2.901-3.563-8.535-6.481-11.75
		C66.59,38.466,63.822,33.775,62.427,28.568z"/>
	<line class="st0" x1="56.99" y1="38.721" x2="65.072" y2="36.555"/>
	<path class="st1" d="M55.874,59.664c1.228-1.565,2.242-3.242,5.054-3.995c5.011-1.343,6.547,2.722,11.56,1.379
		c1.941-0.52,3.026-1.482,3.915-2.544"/>
	<line class="st0" x1="50.494" y1="16.173" x2="50.405" y2="11"/>
	<line class="st0" x1="44.71" y1="17.674" x2="42.046" y2="13.239"/>
	<line class="st0" x1="56.181" y1="17.65" x2="58.922" y2="13.262"/>
</g>
</svg>
