<?xml version="1.0" encoding="utf-8"?>
<!-- Generator: Adobe Illustrator 21.1.0, SVG Export Plug-In . SVG Version: 6.00 Build 0)  -->
<svg version="1.1" id="Layer_1" xmlns="http://www.w3.org/2000/svg" xmlns:xlink="http://www.w3.org/1999/xlink" x="0px" y="0px"
	 viewBox="0 0 100 100" style="enable-background:new 0 0 100 100;" xml:space="preserve">
<style type="text/css">
	.st0{fill:none;stroke:#000000;stroke-width:2;stroke-linecap:round;stroke-linejoin:round;stroke-miterlimit:10;}
	.st1{fill:none;stroke:#000000;stroke-width:2;stroke-miterlimit:10;}
	.st2{fill:none;stroke:#000000;stroke-width:2;stroke-linecap:round;stroke-miterlimit:10;}
	.st3{fill:none;stroke:#000000;stroke-width:2;stroke-linecap:round;stroke-linejoin:round;}
	.st4{fill:none;stroke:#000000;stroke-width:2;stroke-linecap:round;stroke-linejoin:round;stroke-dasharray:12.6718,4.2239;}
	.st5{fill:none;stroke:#000000;stroke-width:2;stroke-linecap:round;stroke-linejoin:round;stroke-dasharray:8.6895,2.8965;}
	.st6{fill:none;stroke:#000000;stroke-width:2;stroke-linecap:round;stroke-linejoin:round;stroke-dasharray:4.6635;}
	.st7{fill:none;stroke:#000000;stroke-width:2;stroke-linecap:round;stroke-linejoin:round;stroke-dasharray:12.8702,4.2901;}
	.st8{fill:none;stroke:#000000;stroke-width:2;stroke-linecap:round;stroke-linejoin:round;stroke-dasharray:8.4419,2.814;}
	.st9{fill:none;stroke:#000000;stroke-width:2;stroke-linecap:round;stroke-linejoin:round;stroke-dasharray:11.2908,3.7636;}
	.st10{fill:none;stroke:#000000;stroke-width:2;stroke-linecap:round;stroke-linejoin:round;stroke-dasharray:8.9003,2.9668;}
	.st11{fill:none;stroke:#000000;stroke-width:2;stroke-linecap:round;stroke-linejoin:round;stroke-dasharray:6.753,2.251;}
	.st12{fill:none;stroke:#000000;stroke-width:2;stroke-linecap:round;stroke-linejoin:round;stroke-dasharray:11.3525,3.7842;}
	.st13{fill:none;stroke:#000000;stroke-width:2;stroke-linecap:round;stroke-linejoin:round;stroke-dasharray:13.6549,4.5516;}
	.st14{fill:none;stroke:#000000;stroke-width:2;stroke-linecap:round;stroke-linejoin:round;stroke-dasharray:7.8218,2.6073;}
	.st15{fill:none;stroke:#000000;stroke-width:2;stroke-linecap:round;stroke-linejoin:round;stroke-dasharray:10.013,3.3377;}
	.st16{fill:none;stroke:#000000;stroke-width:2;stroke-linecap:round;stroke-linejoin:round;stroke-dasharray:3.2499;}
	.st17{fill:none;stroke:#000000;stroke-width:2;stroke-linecap:round;stroke-linejoin:round;stroke-dasharray:8.217,2.739;}
	.st18{fill:none;stroke:#000000;stroke-width:2;stroke-linecap:round;stroke-linejoin:round;stroke-dasharray:7.9698,2.6566;}
</style>
<g>
	<polygon class="st0" points="63.197,81.829 60.337,89 13.448,70.299 26.487,37.606 73.376,56.307 	"/>
	<line class="st0" x1="37.701" y1="64.636" x2="13.448" y2="70.299"/>
	<line class="st0" x1="46.431" y1="67.887" x2="59.769" y2="88.137"/>
	<path class="st0" d="M73.376,56.307L45.63,68.231c-2.789,1.199-6.021-0.091-7.22-2.88L26.487,37.606"/>
	<polyline class="st0" points="32.302,39.694 28.042,26.263 76.161,11 84.468,37.191 86.802,44.55 63.403,51.972 	"/>
	<line class="st0" x1="53.85" y1="40.058" x2="48.887" y2="46.523"/>
	<line class="st0" x1="62.663" y1="37.037" x2="85.815" y2="44.243"/>
	<path class="st0" d="M76.161,11L62.262,37.811c-1.397,2.695-4.714,3.747-7.409,2.35L28.042,26.263"/>
	<g>
		<g>
			<line class="st0" x1="41.96" y1="51.345" x2="44.79" y2="57.442"/>
			<line class="st0" x1="46.424" y1="52.978" x2="40.327" y2="55.808"/>
		</g>
		
			<ellipse transform="matrix(0.3437 -0.9391 0.9391 0.3437 -20.336 85.016)" class="st0" cx="50.652" cy="57.056" rx="2.593" ry="2.593"/>
	</g>
	<g>
		<g>
			<line class="st0" x1="48.27" y1="26.132" x2="54.21" y2="29.276"/>
			<line class="st0" x1="52.812" y1="24.733" x2="49.668" y2="30.674"/>
		</g>
		
			<ellipse transform="matrix(0.9558 -0.2942 0.2942 0.9558 -4.8841 18.376)" class="st0" cx="58.646" cy="25.425" rx="2.593" ry="2.593"/>
	</g>
</g>
</svg>
