<?xml version="1.0" encoding="utf-8"?>
<!-- Generator: Adobe Illustrator 21.1.0, SVG Export Plug-In . SVG Version: 6.00 Build 0)  -->
<svg version="1.1" id="Layer_1" xmlns="http://www.w3.org/2000/svg" xmlns:xlink="http://www.w3.org/1999/xlink" x="0px" y="0px"
	 viewBox="0 0 100 100" style="enable-background:new 0 0 100 100;" xml:space="preserve">
<style type="text/css">
	.st0{fill:none;stroke:#000000;stroke-width:2;stroke-linecap:round;stroke-linejoin:round;stroke-miterlimit:10;}
	.st1{fill:none;stroke:#000000;stroke-width:2;stroke-miterlimit:10;}
	.st2{fill:none;stroke:#000000;stroke-width:2;stroke-linecap:round;stroke-miterlimit:10;}
	.st3{fill:none;stroke:#000000;stroke-width:2;stroke-linecap:round;stroke-linejoin:round;}
	.st4{fill:none;stroke:#000000;stroke-width:2;stroke-linecap:round;stroke-linejoin:round;stroke-dasharray:12.6718,4.2239;}
	.st5{fill:none;stroke:#000000;stroke-width:2;stroke-linecap:round;stroke-linejoin:round;stroke-dasharray:8.6895,2.8965;}
	.st6{fill:none;stroke:#000000;stroke-width:2;stroke-linecap:round;stroke-linejoin:round;stroke-dasharray:4.6635;}
	.st7{fill:none;stroke:#000000;stroke-width:2;stroke-linecap:round;stroke-linejoin:round;stroke-dasharray:12.8702,4.2901;}
	.st8{fill:none;stroke:#000000;stroke-width:2;stroke-linecap:round;stroke-linejoin:round;stroke-dasharray:8.4419,2.814;}
	.st9{fill:none;stroke:#000000;stroke-width:2;stroke-linecap:round;stroke-linejoin:round;stroke-dasharray:11.2908,3.7636;}
	.st10{fill:none;stroke:#000000;stroke-width:2;stroke-linecap:round;stroke-linejoin:round;stroke-dasharray:8.9003,2.9668;}
	.st11{fill:none;stroke:#000000;stroke-width:2;stroke-linecap:round;stroke-linejoin:round;stroke-dasharray:6.753,2.251;}
	.st12{fill:none;stroke:#000000;stroke-width:2;stroke-linecap:round;stroke-linejoin:round;stroke-dasharray:11.3525,3.7842;}
	.st13{fill:none;stroke:#000000;stroke-width:2;stroke-linecap:round;stroke-linejoin:round;stroke-dasharray:13.6549,4.5516;}
	.st14{fill:none;stroke:#000000;stroke-width:2;stroke-linecap:round;stroke-linejoin:round;stroke-dasharray:7.8218,2.6073;}
	.st15{fill:none;stroke:#000000;stroke-width:2;stroke-linecap:round;stroke-linejoin:round;stroke-dasharray:10.013,3.3377;}
	.st16{fill:none;stroke:#000000;stroke-width:2;stroke-linecap:round;stroke-linejoin:round;stroke-dasharray:3.2499;}
	.st17{fill:none;stroke:#000000;stroke-width:2;stroke-linecap:round;stroke-linejoin:round;stroke-dasharray:8.217,2.739;}
	.st18{fill:none;stroke:#000000;stroke-width:2;stroke-linecap:round;stroke-linejoin:round;stroke-dasharray:7.9698,2.6566;}
</style>
<g>
	<line class="st0" x1="87.401" y1="89.001" x2="70.049" y2="89.001"/>
	<path class="st0" d="M69.52,11.076h18.318c0.794,4.399,1.243,15.762,1.243,20.528c0,15.381-4.659,27.858-10.401,27.858
		c-5.743,0-10.401-12.477-10.401-27.858C68.278,26.838,68.727,15.476,69.52,11.076z"/>
	<path class="st1" d="M89.125,29.813c-1.571-1.178-2.966-2.518-5.839-2.518c-5.121,0-5.547,4.268-10.67,4.268
		c-1.984,0-3.264-0.64-4.383-1.425"/>
	<line class="st0" x1="78.679" y1="59.463" x2="78.679" y2="88.375"/>
	<line class="st0" x1="58.732" y1="89.001" x2="41.381" y2="89.001"/>
	<path class="st0" d="M40.852,11.076H59.17c0.794,4.399,1.243,15.762,1.243,20.528c0,15.381-4.659,27.858-10.402,27.858
		c-5.743,0-10.401-12.477-10.401-27.858C39.61,26.838,40.059,15.476,40.852,11.076z"/>
	<path class="st1" d="M60.457,29.813c-1.571-1.178-2.966-2.518-5.839-2.518c-5.121,0-5.547,4.268-10.67,4.268
		c-1.984,0-3.264-0.64-4.383-1.425"/>
	<line class="st0" x1="50.011" y1="59.463" x2="50.011" y2="88.375"/>
	<line class="st0" x1="30.167" y1="89.001" x2="12.815" y2="89.001"/>
	<path class="st0" d="M12.286,11.076h18.318c0.794,4.399,1.243,15.762,1.243,20.528c0,15.381-4.659,27.858-10.401,27.858
		c-5.743,0-10.401-12.477-10.401-27.858C11.044,26.838,11.493,15.476,12.286,11.076z"/>
	<path class="st1" d="M31.891,29.813c-1.571-1.178-2.966-2.518-5.839-2.518c-5.121,0-5.547,4.268-10.67,4.268
		c-1.984,0-3.264-0.64-4.382-1.425"/>
	<line class="st0" x1="21.446" y1="59.463" x2="21.446" y2="88.375"/>
</g>
</svg>
