<?xml version="1.0" encoding="utf-8"?>
<!-- Generator: Adobe Illustrator 21.1.0, SVG Export Plug-In . SVG Version: 6.00 Build 0)  -->
<svg version="1.1" id="Layer_1" xmlns="http://www.w3.org/2000/svg" xmlns:xlink="http://www.w3.org/1999/xlink" x="0px" y="0px"
	 viewBox="0 0 100 100" style="enable-background:new 0 0 100 100;" xml:space="preserve">
<style type="text/css">
	.st0{fill:none;stroke:#000000;stroke-width:2;stroke-linecap:round;stroke-linejoin:round;stroke-miterlimit:10;}
	.st1{fill:none;stroke:#000000;stroke-width:2;stroke-miterlimit:10;}
	.st2{fill:none;stroke:#000000;stroke-width:2;stroke-linecap:round;stroke-miterlimit:10;}
	.st3{fill:none;stroke:#000000;stroke-width:2;stroke-linecap:round;stroke-linejoin:round;}
	.st4{fill:none;stroke:#000000;stroke-width:2;stroke-linecap:round;stroke-linejoin:round;stroke-dasharray:12.6718,4.2239;}
	.st5{fill:none;stroke:#000000;stroke-width:2;stroke-linecap:round;stroke-linejoin:round;stroke-dasharray:8.6895,2.8965;}
	.st6{fill:none;stroke:#000000;stroke-width:2;stroke-linecap:round;stroke-linejoin:round;stroke-dasharray:4.6635;}
	.st7{fill:none;stroke:#000000;stroke-width:2;stroke-linecap:round;stroke-linejoin:round;stroke-dasharray:12.8702,4.2901;}
	.st8{fill:none;stroke:#000000;stroke-width:2;stroke-linecap:round;stroke-linejoin:round;stroke-dasharray:8.4419,2.814;}
	.st9{fill:none;stroke:#000000;stroke-width:2;stroke-linecap:round;stroke-linejoin:round;stroke-dasharray:11.2908,3.7636;}
	.st10{fill:none;stroke:#000000;stroke-width:2;stroke-linecap:round;stroke-linejoin:round;stroke-dasharray:8.9003,2.9668;}
	.st11{fill:none;stroke:#000000;stroke-width:2;stroke-linecap:round;stroke-linejoin:round;stroke-dasharray:6.753,2.251;}
	.st12{fill:none;stroke:#000000;stroke-width:2;stroke-linecap:round;stroke-linejoin:round;stroke-dasharray:11.3525,3.7842;}
	.st13{fill:none;stroke:#000000;stroke-width:2;stroke-linecap:round;stroke-linejoin:round;stroke-dasharray:13.6549,4.5516;}
	.st14{fill:none;stroke:#000000;stroke-width:2;stroke-linecap:round;stroke-linejoin:round;stroke-dasharray:7.8218,2.6073;}
	.st15{fill:none;stroke:#000000;stroke-width:2;stroke-linecap:round;stroke-linejoin:round;stroke-dasharray:10.013,3.3377;}
	.st16{fill:none;stroke:#000000;stroke-width:2;stroke-linecap:round;stroke-linejoin:round;stroke-dasharray:3.2499;}
	.st17{fill:none;stroke:#000000;stroke-width:2;stroke-linecap:round;stroke-linejoin:round;stroke-dasharray:8.217,2.739;}
	.st18{fill:none;stroke:#000000;stroke-width:2;stroke-linecap:round;stroke-linejoin:round;stroke-dasharray:7.9698,2.6566;}
</style>
<g>
	<g>
		<path class="st0" d="M50.125,45.394c5.492-9.011,17.529-2.965,15.203,7.247c-2.276,9.992-15.203,15.276-15.203,15.276
			s-12.929-5.284-15.203-15.276C32.596,42.43,44.632,36.383,50.125,45.394z"/>
	</g>
	<rect x="11.125" y="34.4" class="st0" width="78" height="54.6"/>
	<polyline class="st0" points="19.258,34.4 49.637,11.001 80.992,34.4 	"/>
	<g>
		<polygon class="st0" points="21.515,75.581 24.029,74.253 23.549,77.065 25.582,79.057 22.772,79.467 21.515,82.026 
			20.258,79.467 17.448,79.057 19.482,77.065 19.002,74.253 		"/>
		<polygon class="st0" points="35.82,75.581 38.334,74.253 37.853,77.065 39.887,79.057 37.077,79.467 35.82,82.026 34.563,79.467 
			31.753,79.057 33.787,77.065 33.307,74.253 		"/>
		<polygon class="st0" points="50.125,75.581 52.639,74.253 52.158,77.065 54.192,79.057 51.382,79.467 50.125,82.026 
			48.868,79.467 46.058,79.057 48.092,77.065 47.611,74.253 		"/>
		<polygon class="st0" points="64.43,75.581 66.943,74.253 66.463,77.065 68.497,79.057 65.687,79.467 64.43,82.026 63.173,79.467 
			60.363,79.057 62.396,77.065 61.916,74.253 		"/>
		<polygon class="st0" points="78.735,75.581 81.248,74.253 80.768,77.065 82.802,79.057 79.992,79.467 78.735,82.026 
			77.478,79.467 74.668,79.057 76.701,77.065 76.221,74.253 		"/>
	</g>
</g>
</svg>
