<?xml version="1.0" encoding="utf-8"?>
<!-- Generator: Adobe Illustrator 21.1.0, SVG Export Plug-In . SVG Version: 6.00 Build 0)  -->
<svg version="1.1" id="Layer_1" xmlns="http://www.w3.org/2000/svg" xmlns:xlink="http://www.w3.org/1999/xlink" x="0px" y="0px"
	 viewBox="0 0 100 100" style="enable-background:new 0 0 100 100;" xml:space="preserve">
<style type="text/css">
	.st0{fill:none;stroke:#000000;stroke-width:2;stroke-linecap:round;stroke-linejoin:round;stroke-miterlimit:10;}
	.st1{fill:none;stroke:#000000;stroke-width:2;stroke-miterlimit:10;}
	.st2{fill:none;stroke:#000000;stroke-width:2;stroke-linecap:round;stroke-miterlimit:10;}
	.st3{fill:none;stroke:#000000;stroke-width:2;stroke-linecap:round;stroke-linejoin:round;}
	.st4{fill:none;stroke:#000000;stroke-width:2;stroke-linecap:round;stroke-linejoin:round;stroke-dasharray:12.6718,4.2239;}
	.st5{fill:none;stroke:#000000;stroke-width:2;stroke-linecap:round;stroke-linejoin:round;stroke-dasharray:8.6895,2.8965;}
	.st6{fill:none;stroke:#000000;stroke-width:2;stroke-linecap:round;stroke-linejoin:round;stroke-dasharray:4.6635;}
	.st7{fill:none;stroke:#000000;stroke-width:2;stroke-linecap:round;stroke-linejoin:round;stroke-dasharray:12.8702,4.2901;}
	.st8{fill:none;stroke:#000000;stroke-width:2;stroke-linecap:round;stroke-linejoin:round;stroke-dasharray:8.4419,2.814;}
	.st9{fill:none;stroke:#000000;stroke-width:2;stroke-linecap:round;stroke-linejoin:round;stroke-dasharray:11.2908,3.7636;}
	.st10{fill:none;stroke:#000000;stroke-width:2;stroke-linecap:round;stroke-linejoin:round;stroke-dasharray:8.9003,2.9668;}
	.st11{fill:none;stroke:#000000;stroke-width:2;stroke-linecap:round;stroke-linejoin:round;stroke-dasharray:6.753,2.251;}
	.st12{fill:none;stroke:#000000;stroke-width:2;stroke-linecap:round;stroke-linejoin:round;stroke-dasharray:11.3525,3.7842;}
	.st13{fill:none;stroke:#000000;stroke-width:2;stroke-linecap:round;stroke-linejoin:round;stroke-dasharray:13.6549,4.5516;}
	.st14{fill:none;stroke:#000000;stroke-width:2;stroke-linecap:round;stroke-linejoin:round;stroke-dasharray:7.8218,2.6073;}
	.st15{fill:none;stroke:#000000;stroke-width:2;stroke-linecap:round;stroke-linejoin:round;stroke-dasharray:10.013,3.3377;}
	.st16{fill:none;stroke:#000000;stroke-width:2;stroke-linecap:round;stroke-linejoin:round;stroke-dasharray:3.2499;}
	.st17{fill:none;stroke:#000000;stroke-width:2;stroke-linecap:round;stroke-linejoin:round;stroke-dasharray:8.217,2.739;}
	.st18{fill:none;stroke:#000000;stroke-width:2;stroke-linecap:round;stroke-linejoin:round;stroke-dasharray:7.9698,2.6566;}
</style>
<g>
	<g>
		<path class="st0" d="M50.004,54.286c3.669-5.992,11.711-1.971,10.157,4.818c-1.521,6.644-10.157,10.157-10.157,10.157
			s-8.638-3.513-10.157-10.157C38.293,52.315,46.335,48.294,50.004,54.286z"/>
	</g>
	<path class="st0" d="M40.711,39.323c-6.293,2.348-11.129,7.689-12.775,14.291"/>
	<path class="st0" d="M52.639,30.287h-5.27c-2.378,0-4.324-1.946-4.324-4.324V15.325c0-2.378,1.946-4.324,4.324-4.324h5.27
		c2.378,0,4.324,1.946,4.324,4.324v10.639C56.963,28.342,55.017,30.287,52.639,30.287z"/>
	<line class="st0" x1="63.682" y1="83.771" x2="36.326" y2="83.771"/>
	<path class="st0" d="M80.56,58.871c-0.768-11.864-8.46-21.986-19.027-26.322V20.298c0-1.402-1.147-2.549-2.549-2.549H41.025
		c-1.402,0-2.549,1.147-2.549,2.549v12.244C27.28,37.097,19.383,48.077,19.383,60.909c0,9.571,4.391,18.116,11.268,23.731v2.7
		c0,0.917,0.743,1.66,1.66,1.66h35.52c0.928,0,1.676-0.761,1.66-1.688l-0.046-2.743C76.755,78.556,81.23,69.22,80.56,58.871z"/>
</g>
</svg>
