<?xml version="1.0" encoding="utf-8"?>
<!-- Generator: Adobe Illustrator 21.1.0, SVG Export Plug-In . SVG Version: 6.00 Build 0)  -->
<svg version="1.1" id="Layer_1" xmlns="http://www.w3.org/2000/svg" xmlns:xlink="http://www.w3.org/1999/xlink" x="0px" y="0px"
	 viewBox="0 0 100 100" style="enable-background:new 0 0 100 100;" xml:space="preserve">
<style type="text/css">
	.st0{fill:none;stroke:#000000;stroke-width:2;stroke-linecap:round;stroke-linejoin:round;stroke-miterlimit:10;}
	.st1{fill:none;stroke:#000000;stroke-width:2;stroke-miterlimit:10;}
	.st2{fill:none;stroke:#000000;stroke-width:2;stroke-linecap:round;stroke-miterlimit:10;}
	.st3{fill:none;stroke:#000000;stroke-width:2;stroke-linecap:round;stroke-linejoin:round;}
	.st4{fill:none;stroke:#000000;stroke-width:2;stroke-linecap:round;stroke-linejoin:round;stroke-dasharray:12.6718,4.2239;}
	.st5{fill:none;stroke:#000000;stroke-width:2;stroke-linecap:round;stroke-linejoin:round;stroke-dasharray:8.6895,2.8965;}
	.st6{fill:none;stroke:#000000;stroke-width:2;stroke-linecap:round;stroke-linejoin:round;stroke-dasharray:4.6635;}
	.st7{fill:none;stroke:#000000;stroke-width:2;stroke-linecap:round;stroke-linejoin:round;stroke-dasharray:12.8702,4.2901;}
	.st8{fill:none;stroke:#000000;stroke-width:2;stroke-linecap:round;stroke-linejoin:round;stroke-dasharray:8.4419,2.814;}
	.st9{fill:none;stroke:#000000;stroke-width:2;stroke-linecap:round;stroke-linejoin:round;stroke-dasharray:11.2908,3.7636;}
	.st10{fill:none;stroke:#000000;stroke-width:2;stroke-linecap:round;stroke-linejoin:round;stroke-dasharray:8.9003,2.9668;}
	.st11{fill:none;stroke:#000000;stroke-width:2;stroke-linecap:round;stroke-linejoin:round;stroke-dasharray:6.753,2.251;}
	.st12{fill:none;stroke:#000000;stroke-width:2;stroke-linecap:round;stroke-linejoin:round;stroke-dasharray:11.3525,3.7842;}
	.st13{fill:none;stroke:#000000;stroke-width:2;stroke-linecap:round;stroke-linejoin:round;stroke-dasharray:13.6549,4.5516;}
	.st14{fill:none;stroke:#000000;stroke-width:2;stroke-linecap:round;stroke-linejoin:round;stroke-dasharray:7.8218,2.6073;}
	.st15{fill:none;stroke:#000000;stroke-width:2;stroke-linecap:round;stroke-linejoin:round;stroke-dasharray:10.013,3.3377;}
	.st16{fill:none;stroke:#000000;stroke-width:2;stroke-linecap:round;stroke-linejoin:round;stroke-dasharray:3.2499;}
	.st17{fill:none;stroke:#000000;stroke-width:2;stroke-linecap:round;stroke-linejoin:round;stroke-dasharray:8.217,2.739;}
	.st18{fill:none;stroke:#000000;stroke-width:2;stroke-linecap:round;stroke-linejoin:round;stroke-dasharray:7.9698,2.6566;}
</style>
<g>
	<path class="st0" d="M64.533,21.265l10.477-1.948c0,0,16.965,34.606-3.647,38.439"/>
	<path class="st0" d="M64.164,21.333l-10.477,1.948c0,0-3.305,38.376,17.307,34.542"/>
	<path class="st1" d="M77.466,26.637c-1.921-0.5-3.668-1.151-6.892-0.539c-5.747,1.092-5.651,4.206-11.4,5.298
		c-2.226,0.423-3.749,0.243-5.11-0.075"/>
	<line class="st0" x1="84.204" y1="86.224" x2="69.59" y2="89.001"/>
	<line class="st0" x1="71.229" y1="57.781" x2="76.725" y2="86.708"/>
	<path class="st0" d="M36.854,21.265l-10.477-1.948c0,0-16.965,34.606,3.647,38.439"/>
	<path class="st0" d="M37.222,21.333l10.477,1.948c0,0,3.305,38.376-17.307,34.542"/>
	<path class="st1" d="M23.92,26.637c1.921-0.5,3.668-1.151,6.892-0.539c5.747,1.092,5.651,4.206,11.4,5.298
		c2.226,0.423,3.749,0.243,5.11-0.075"/>
	<line class="st0" x1="17.183" y1="86.224" x2="31.797" y2="89.001"/>
	<line class="st0" x1="30.157" y1="57.781" x2="24.662" y2="86.708"/>
	<line class="st0" x1="50.402" y1="16.373" x2="50.309" y2="11"/>
	<line class="st0" x1="44.394" y1="16.909" x2="41.627" y2="12.302"/>
	<line class="st0" x1="56.31" y1="16.885" x2="59.157" y2="12.326"/>
</g>
</svg>
