<?xml version="1.0" encoding="utf-8"?>
<!-- Generator: Adobe Illustrator 21.1.0, SVG Export Plug-In . SVG Version: 6.00 Build 0)  -->
<svg version="1.1" id="Layer_1" xmlns="http://www.w3.org/2000/svg" xmlns:xlink="http://www.w3.org/1999/xlink" x="0px" y="0px"
	 viewBox="0 0 100 100" style="enable-background:new 0 0 100 100;" xml:space="preserve">
<style type="text/css">
	.st0{fill:none;stroke:#000000;stroke-width:2;stroke-linecap:round;stroke-linejoin:round;stroke-miterlimit:10;}
	.st1{fill:none;stroke:#000000;stroke-width:2;stroke-miterlimit:10;}
	.st2{fill:none;stroke:#000000;stroke-width:2;stroke-linecap:round;stroke-miterlimit:10;}
	.st3{fill:none;stroke:#000000;stroke-width:2;stroke-linecap:round;stroke-linejoin:round;}
	.st4{fill:none;stroke:#000000;stroke-width:2;stroke-linecap:round;stroke-linejoin:round;stroke-dasharray:12.6718,4.2239;}
	.st5{fill:none;stroke:#000000;stroke-width:2;stroke-linecap:round;stroke-linejoin:round;stroke-dasharray:8.6895,2.8965;}
	.st6{fill:none;stroke:#000000;stroke-width:2;stroke-linecap:round;stroke-linejoin:round;stroke-dasharray:4.6635;}
	.st7{fill:none;stroke:#000000;stroke-width:2;stroke-linecap:round;stroke-linejoin:round;stroke-dasharray:12.8702,4.2901;}
	.st8{fill:none;stroke:#000000;stroke-width:2;stroke-linecap:round;stroke-linejoin:round;stroke-dasharray:8.4419,2.814;}
	.st9{fill:none;stroke:#000000;stroke-width:2;stroke-linecap:round;stroke-linejoin:round;stroke-dasharray:11.2908,3.7636;}
	.st10{fill:none;stroke:#000000;stroke-width:2;stroke-linecap:round;stroke-linejoin:round;stroke-dasharray:8.9003,2.9668;}
	.st11{fill:none;stroke:#000000;stroke-width:2;stroke-linecap:round;stroke-linejoin:round;stroke-dasharray:6.753,2.251;}
	.st12{fill:none;stroke:#000000;stroke-width:2;stroke-linecap:round;stroke-linejoin:round;stroke-dasharray:11.3525,3.7842;}
	.st13{fill:none;stroke:#000000;stroke-width:2;stroke-linecap:round;stroke-linejoin:round;stroke-dasharray:13.6549,4.5516;}
	.st14{fill:none;stroke:#000000;stroke-width:2;stroke-linecap:round;stroke-linejoin:round;stroke-dasharray:7.8218,2.6073;}
	.st15{fill:none;stroke:#000000;stroke-width:2;stroke-linecap:round;stroke-linejoin:round;stroke-dasharray:10.013,3.3377;}
	.st16{fill:none;stroke:#000000;stroke-width:2;stroke-linecap:round;stroke-linejoin:round;stroke-dasharray:3.2499;}
	.st17{fill:none;stroke:#000000;stroke-width:2;stroke-linecap:round;stroke-linejoin:round;stroke-dasharray:8.217,2.739;}
	.st18{fill:none;stroke:#000000;stroke-width:2;stroke-linecap:round;stroke-linejoin:round;stroke-dasharray:7.9698,2.6566;}
</style>
<g>
	<path class="st0" d="M56.801,15.462h9.145c0.542,0,0.981-0.439,0.981-0.981v-2.5c0-0.542-0.439-0.981-0.981-0.981h-9.145
		c-0.542,0-0.981,0.439-0.981,0.981v2.5C55.82,15.023,56.26,15.462,56.801,15.462z"/>
	<path class="st0" d="M57.117,19.339v-3.858h8.256v3.666c0,6.382,1.769,12.586,4.755,18.228c2.409,4.553,3.911,11.86,3.911,15.458
		v33.778c0,1.313-1.064,2.378-2.378,2.378H51.086c-1.313,0-2.378-1.065-2.378-2.378V52.833c0-3.535,1.451-10.787,3.788-15.331
		C55.399,31.859,57.117,25.684,57.117,19.339z"/>
	<line class="st0" x1="66.39" y1="29.225" x2="56.542" y2="29.225"/>
	<line class="st0" x1="43.114" y1="88.989" x2="28.843" y2="88.989"/>
	<path class="st0" d="M28.408,24.898h15.066c0.653,3.618,1.022,12.964,1.022,16.884c0,12.65-3.832,22.913-8.555,22.913
		c-4.723,0-8.555-10.262-8.555-22.913C27.386,37.862,27.755,28.516,28.408,24.898z"/>
	<path class="st1" d="M44.532,40.308c-1.292-0.969-2.44-2.071-4.803-2.071c-4.212,0-4.562,3.51-8.776,3.51
		c-1.632,0-2.685-0.526-3.604-1.172"/>
	<path class="st1" d="M74.039,52.694c-1.873-1.405-3.537-3.003-6.962-3.003c-6.105,0-6.614,5.088-12.721,5.088
		c-2.365,0-3.892-0.763-5.225-1.699"/>
	<line class="st0" x1="35.941" y1="64.695" x2="35.941" y2="88.495"/>
</g>
</svg>
