<?xml version="1.0" encoding="utf-8"?>
<!-- Generator: Adobe Illustrator 21.1.0, SVG Export Plug-In . SVG Version: 6.00 Build 0)  -->
<svg version="1.1" id="Layer_1" xmlns="http://www.w3.org/2000/svg" xmlns:xlink="http://www.w3.org/1999/xlink" x="0px" y="0px"
	 viewBox="0 0 100 100" style="enable-background:new 0 0 100 100;" xml:space="preserve">
<style type="text/css">
	.st0{fill:none;stroke:#000000;stroke-width:2;stroke-linecap:round;stroke-linejoin:round;stroke-miterlimit:10;}
	.st1{fill:none;stroke:#000000;stroke-width:2;stroke-miterlimit:10;}
	.st2{fill:none;stroke:#000000;stroke-width:2;stroke-linecap:round;stroke-miterlimit:10;}
	.st3{fill:none;stroke:#000000;stroke-width:2;stroke-linecap:round;stroke-linejoin:round;}
	.st4{fill:none;stroke:#000000;stroke-width:2;stroke-linecap:round;stroke-linejoin:round;stroke-dasharray:12.6718,4.2239;}
	.st5{fill:none;stroke:#000000;stroke-width:2;stroke-linecap:round;stroke-linejoin:round;stroke-dasharray:8.6895,2.8965;}
	.st6{fill:none;stroke:#000000;stroke-width:2;stroke-linecap:round;stroke-linejoin:round;stroke-dasharray:4.6635;}
	.st7{fill:none;stroke:#000000;stroke-width:2;stroke-linecap:round;stroke-linejoin:round;stroke-dasharray:12.8702,4.2901;}
	.st8{fill:none;stroke:#000000;stroke-width:2;stroke-linecap:round;stroke-linejoin:round;stroke-dasharray:8.4419,2.814;}
	.st9{fill:none;stroke:#000000;stroke-width:2;stroke-linecap:round;stroke-linejoin:round;stroke-dasharray:11.2908,3.7636;}
	.st10{fill:none;stroke:#000000;stroke-width:2;stroke-linecap:round;stroke-linejoin:round;stroke-dasharray:8.9003,2.9668;}
	.st11{fill:none;stroke:#000000;stroke-width:2;stroke-linecap:round;stroke-linejoin:round;stroke-dasharray:6.753,2.251;}
	.st12{fill:none;stroke:#000000;stroke-width:2;stroke-linecap:round;stroke-linejoin:round;stroke-dasharray:11.3525,3.7842;}
	.st13{fill:none;stroke:#000000;stroke-width:2;stroke-linecap:round;stroke-linejoin:round;stroke-dasharray:13.6549,4.5516;}
	.st14{fill:none;stroke:#000000;stroke-width:2;stroke-linecap:round;stroke-linejoin:round;stroke-dasharray:7.8218,2.6073;}
	.st15{fill:none;stroke:#000000;stroke-width:2;stroke-linecap:round;stroke-linejoin:round;stroke-dasharray:10.013,3.3377;}
	.st16{fill:none;stroke:#000000;stroke-width:2;stroke-linecap:round;stroke-linejoin:round;stroke-dasharray:3.2499;}
	.st17{fill:none;stroke:#000000;stroke-width:2;stroke-linecap:round;stroke-linejoin:round;stroke-dasharray:8.217,2.739;}
	.st18{fill:none;stroke:#000000;stroke-width:2;stroke-linecap:round;stroke-linejoin:round;stroke-dasharray:7.9698,2.6566;}
</style>
<g>
	<path class="st0" d="M49.295,23.474c0,0,4.982-2.012,4.065-6.712c-0.917-4.699,0.658-5.896,0.658-5.896S41.274,14.87,49.295,23.474
		z"/>
	<line class="st0" x1="49.632" y1="36.5" x2="49.632" y2="19.212"/>
	<polygon class="st0" points="32.474,89 68.877,89 72.456,60.3 28.894,60.3 	"/>
	<line class="st0" x1="65.518" y1="60.3" x2="65.518" y2="88.415"/>
	<line class="st0" x1="59.589" y1="60.3" x2="59.589" y2="88.415"/>
	<line class="st0" x1="53.661" y1="60.3" x2="53.661" y2="88.415"/>
	<line class="st0" x1="47.732" y1="60.3" x2="47.732" y2="88.415"/>
	<line class="st0" x1="41.803" y1="60.3" x2="41.803" y2="88.415"/>
	<line class="st0" x1="35.874" y1="60.3" x2="35.874" y2="88.415"/>
	<path class="st0" d="M28.361,60.3h43.684c1.776,0,3.215-1.44,3.215-3.215v-0.377c0-1.776-1.44-3.215-3.215-3.215H28.361
		c-1.776,0-3.215,1.44-3.215,3.215v0.377C25.146,58.86,26.585,60.3,28.361,60.3z"/>
	<path class="st0" d="M72.263,53.175c0,0,1.692-13.012-14.617-18.1c-6.695-2.089-14.524-1.392-19.548-7.484
		c-2.127-2.579-12.177,17.229-9.204,25.901"/>
	<line class="st0" x1="47.818" y1="48.691" x2="49.197" y2="48.488"/>
	<line class="st0" x1="64.828" y1="49.467" x2="66.208" y2="49.264"/>
	<line class="st0" x1="58.468" y1="47.537" x2="57.553" y2="48.589"/>
	<line class="st0" x1="43.099" y1="44.695" x2="42.185" y2="45.749"/>
	<line class="st0" x1="63.032" y1="43.837" x2="63.197" y2="45.222"/>
	<line class="st0" x1="35.206" y1="47.564" x2="36.508" y2="48.063"/>
	<line class="st0" x1="50.781" y1="44.03" x2="52.083" y2="44.529"/>
	<line class="st0" x1="35.857" y1="41.553" x2="37.237" y2="41.35"/>
	<line class="st0" x1="55.91" y1="41.116" x2="57.29" y2="40.914"/>
	<line class="st0" x1="38.223" y1="35.456" x2="39.157" y2="36.492"/>
	<line class="st0" x1="45.142" y1="37.474" x2="44.226" y2="38.525"/>
</g>
</svg>
