<?xml version="1.0" encoding="utf-8"?>
<!-- Generator: Adobe Illustrator 21.1.0, SVG Export Plug-In . SVG Version: 6.00 Build 0)  -->
<svg version="1.1" id="Layer_1" xmlns="http://www.w3.org/2000/svg" xmlns:xlink="http://www.w3.org/1999/xlink" x="0px" y="0px"
	 viewBox="0 0 100 100" style="enable-background:new 0 0 100 100;" xml:space="preserve">
<style type="text/css">
	.st0{fill:none;stroke:#000000;stroke-width:2;stroke-linecap:round;stroke-linejoin:round;stroke-miterlimit:10;}
	.st1{fill:none;stroke:#000000;stroke-width:2;stroke-miterlimit:10;}
	.st2{fill:none;stroke:#000000;stroke-width:2;stroke-linecap:round;stroke-miterlimit:10;}
	.st3{fill:none;stroke:#000000;stroke-width:2;stroke-linecap:round;stroke-linejoin:round;}
	.st4{fill:none;stroke:#000000;stroke-width:2;stroke-linecap:round;stroke-linejoin:round;stroke-dasharray:12.6718,4.2239;}
	.st5{fill:none;stroke:#000000;stroke-width:2;stroke-linecap:round;stroke-linejoin:round;stroke-dasharray:8.6895,2.8965;}
	.st6{fill:none;stroke:#000000;stroke-width:2;stroke-linecap:round;stroke-linejoin:round;stroke-dasharray:4.6635;}
	.st7{fill:none;stroke:#000000;stroke-width:2;stroke-linecap:round;stroke-linejoin:round;stroke-dasharray:12.8702,4.2901;}
	.st8{fill:none;stroke:#000000;stroke-width:2;stroke-linecap:round;stroke-linejoin:round;stroke-dasharray:8.4419,2.814;}
	.st9{fill:none;stroke:#000000;stroke-width:2;stroke-linecap:round;stroke-linejoin:round;stroke-dasharray:11.2908,3.7636;}
	.st10{fill:none;stroke:#000000;stroke-width:2;stroke-linecap:round;stroke-linejoin:round;stroke-dasharray:8.9003,2.9668;}
	.st11{fill:none;stroke:#000000;stroke-width:2;stroke-linecap:round;stroke-linejoin:round;stroke-dasharray:6.753,2.251;}
	.st12{fill:none;stroke:#000000;stroke-width:2;stroke-linecap:round;stroke-linejoin:round;stroke-dasharray:11.3525,3.7842;}
	.st13{fill:none;stroke:#000000;stroke-width:2;stroke-linecap:round;stroke-linejoin:round;stroke-dasharray:13.6549,4.5516;}
	.st14{fill:none;stroke:#000000;stroke-width:2;stroke-linecap:round;stroke-linejoin:round;stroke-dasharray:7.8218,2.6073;}
	.st15{fill:none;stroke:#000000;stroke-width:2;stroke-linecap:round;stroke-linejoin:round;stroke-dasharray:10.013,3.3377;}
	.st16{fill:none;stroke:#000000;stroke-width:2;stroke-linecap:round;stroke-linejoin:round;stroke-dasharray:3.2499;}
	.st17{fill:none;stroke:#000000;stroke-width:2;stroke-linecap:round;stroke-linejoin:round;stroke-dasharray:8.217,2.739;}
	.st18{fill:none;stroke:#000000;stroke-width:2;stroke-linecap:round;stroke-linejoin:round;stroke-dasharray:7.9698,2.6566;}
</style>
<g>
	<path class="st0" d="M60.833,28.368V12.98c0-1.094-0.919-1.98-2.053-1.98H42.217c-1.134,0-2.053,0.887-2.053,1.98v15.388"/>
	<path class="st0" d="M64.976,51.682V31.086c0-1.146-0.968-2.074-2.163-2.074h-24.63c-1.195,0-2.163,0.929-2.163,2.074v20.597"/>
	<path class="st0" d="M28.115,89.118h44.767V55.565c0-1.61-1.305-2.916-2.916-2.916H31.03c-1.61,0-2.916,1.305-2.916,2.916V89.118z"
		/>
	<circle class="st1" cx="59.607" cy="46.516" r="0.53"/>
	<circle class="st1" cx="50.499" cy="46.516" r="0.53"/>
	<circle class="st1" cx="50.499" cy="23.75" r="0.53"/>
	<circle class="st1" cx="41.391" cy="46.516" r="0.53"/>
	<circle class="st1" cx="55.842" cy="81.562" r="0.53"/>
	<circle class="st1" cx="66.325" cy="81.562" r="0.53"/>
	<circle class="st1" cx="45.257" cy="81.562" r="0.53"/>
	<circle class="st1" cx="34.672" cy="81.562" r="0.53"/>
	<path class="st1" d="M61.172,52.915c0,7.081,2.307,20.833,5.153,20.833c2.846,0,5.153-13.753,5.153-20.833"/>
	<path class="st1" d="M50.689,52.915c0,7.081,2.307,20.833,5.153,20.833c2.846,0,5.153-13.753,5.153-20.833"/>
	<path class="st1" d="M40.104,52.915c0,7.081,2.307,20.833,5.153,20.833c2.846,0,5.153-13.753,5.153-20.833"/>
	<path class="st1" d="M29.519,52.915c0,7.081,2.307,20.833,5.153,20.833c2.846,0,5.153-13.753,5.153-20.833"/>
	<path class="st1" d="M55.173,29.93c0,3.817,1.985,11.233,4.434,11.233s4.434-7.415,4.434-11.233"/>
	<path class="st1" d="M46.065,29.93c0,3.817,1.985,11.233,4.434,11.233s4.434-7.415,4.434-11.233"/>
	<path class="st1" d="M42.179,11c0,2.951,1.813,8.684,4.05,8.684c2.237,0,4.05-5.733,4.05-8.684"/>
	<path class="st1" d="M50.718,11c0,2.951,1.813,8.684,4.05,8.684c2.237,0,4.05-5.733,4.05-8.684"/>
	<path class="st1" d="M36.957,29.93c0,3.817,1.985,11.233,4.434,11.233c2.449,0,4.434-7.415,4.434-11.233"/>
</g>
</svg>
