<?xml version="1.0" encoding="utf-8"?>
<!-- Generator: Adobe Illustrator 21.1.0, SVG Export Plug-In . SVG Version: 6.00 Build 0)  -->
<svg version="1.1" id="Layer_1" xmlns="http://www.w3.org/2000/svg" xmlns:xlink="http://www.w3.org/1999/xlink" x="0px" y="0px"
	 viewBox="0 0 100 100" style="enable-background:new 0 0 100 100;" xml:space="preserve">
<style type="text/css">
	.st0{fill:none;stroke:#000000;stroke-width:2;stroke-linecap:round;stroke-linejoin:round;stroke-miterlimit:10;}
	.st1{fill:none;stroke:#000000;stroke-width:2;stroke-miterlimit:10;}
	.st2{fill:none;stroke:#000000;stroke-width:2;stroke-linecap:round;stroke-miterlimit:10;}
	.st3{fill:none;stroke:#000000;stroke-width:2;stroke-linecap:round;stroke-linejoin:round;}
	.st4{fill:none;stroke:#000000;stroke-width:2;stroke-linecap:round;stroke-linejoin:round;stroke-dasharray:12.6718,4.2239;}
	.st5{fill:none;stroke:#000000;stroke-width:2;stroke-linecap:round;stroke-linejoin:round;stroke-dasharray:8.6895,2.8965;}
	.st6{fill:none;stroke:#000000;stroke-width:2;stroke-linecap:round;stroke-linejoin:round;stroke-dasharray:4.6635;}
	.st7{fill:none;stroke:#000000;stroke-width:2;stroke-linecap:round;stroke-linejoin:round;stroke-dasharray:12.8702,4.2901;}
	.st8{fill:none;stroke:#000000;stroke-width:2;stroke-linecap:round;stroke-linejoin:round;stroke-dasharray:8.4419,2.814;}
	.st9{fill:none;stroke:#000000;stroke-width:2;stroke-linecap:round;stroke-linejoin:round;stroke-dasharray:11.2908,3.7636;}
	.st10{fill:none;stroke:#000000;stroke-width:2;stroke-linecap:round;stroke-linejoin:round;stroke-dasharray:8.9003,2.9668;}
	.st11{fill:none;stroke:#000000;stroke-width:2;stroke-linecap:round;stroke-linejoin:round;stroke-dasharray:6.753,2.251;}
	.st12{fill:none;stroke:#000000;stroke-width:2;stroke-linecap:round;stroke-linejoin:round;stroke-dasharray:11.3525,3.7842;}
	.st13{fill:none;stroke:#000000;stroke-width:2;stroke-linecap:round;stroke-linejoin:round;stroke-dasharray:13.6549,4.5516;}
	.st14{fill:none;stroke:#000000;stroke-width:2;stroke-linecap:round;stroke-linejoin:round;stroke-dasharray:7.8218,2.6073;}
	.st15{fill:none;stroke:#000000;stroke-width:2;stroke-linecap:round;stroke-linejoin:round;stroke-dasharray:10.013,3.3377;}
	.st16{fill:none;stroke:#000000;stroke-width:2;stroke-linecap:round;stroke-linejoin:round;stroke-dasharray:3.2499;}
	.st17{fill:none;stroke:#000000;stroke-width:2;stroke-linecap:round;stroke-linejoin:round;stroke-dasharray:8.217,2.739;}
	.st18{fill:none;stroke:#000000;stroke-width:2;stroke-linecap:round;stroke-linejoin:round;stroke-dasharray:7.9698,2.6566;}
</style>
<g>
	<path class="st0" d="M59.048,37.337c-5.25,0.824-10.296,3.259-14.342,7.305c-3.728,3.728-6.088,8.305-7.081,13.109
		c0,0-0.589,3.723-0.54,5.29"/>
	<path class="st0" d="M57.825,41.715c-3.757,0.926-7.317,2.857-10.253,5.793c-2.823,2.823-4.717,6.223-5.682,9.82
		c0,0-0.825,3.007-0.735,5.366"/>
	<path class="st0" d="M41.159,62.722c5.244-0.827,10.284-3.261,14.325-7.302c10.161-10.162,10.161-26.636,0-36.798
		c-10.162-10.161-26.636-10.161-36.798,0c-10.161,10.161-10.161,26.636,0,36.798c4.944,4.944,11.382,7.482,17.861,7.615"/>
	<path class="st0" d="M42,58.438c3.917-0.896,7.731-2.998,10.617-5.884c8.578-8.578,8.578-22.486,0-31.065
		c-8.578-8.578-22.486-8.578-31.065,0c-8.578,8.578-8.578,22.486,0,31.065c4.198,4.198,9.672,6.341,15.173,6.431"/>
	<path class="st0" d="M41.155,62.694c-0.09,5.737,2.04,11.502,6.417,15.879c8.578,8.578,22.486,8.578,31.065,0
		c8.578-8.578,8.578-22.486,0-31.065c-4.377-4.377-10.142-6.507-15.879-6.417c0.213-1.349,0.347-2.708,0.347-4.07
		c6.659,0,13.318,2.54,18.399,7.621c10.161,10.161,10.161,26.636,0,36.798c-10.161,10.161-26.636,10.161-36.798,0
		c-5.081-5.081-7.621-11.74-7.621-18.399"/>
</g>
</svg>
