<?xml version="1.0" encoding="utf-8"?>
<!-- Generator: Adobe Illustrator 21.1.0, SVG Export Plug-In . SVG Version: 6.00 Build 0)  -->
<svg version="1.1" id="Layer_1" xmlns="http://www.w3.org/2000/svg" xmlns:xlink="http://www.w3.org/1999/xlink" x="0px" y="0px"
	 viewBox="0 0 100 100" style="enable-background:new 0 0 100 100;" xml:space="preserve">
<style type="text/css">
	.st0{fill:none;stroke:#000000;stroke-width:2;stroke-linecap:round;stroke-linejoin:round;stroke-miterlimit:10;}
	.st1{fill:none;stroke:#000000;stroke-width:2;stroke-miterlimit:10;}
	.st2{fill:none;stroke:#000000;stroke-width:2;stroke-linecap:round;stroke-miterlimit:10;}
	.st3{fill:none;stroke:#000000;stroke-width:2;stroke-linecap:round;stroke-linejoin:round;}
	.st4{fill:none;stroke:#000000;stroke-width:2;stroke-linecap:round;stroke-linejoin:round;stroke-dasharray:12.6718,4.2239;}
	.st5{fill:none;stroke:#000000;stroke-width:2;stroke-linecap:round;stroke-linejoin:round;stroke-dasharray:8.6895,2.8965;}
	.st6{fill:none;stroke:#000000;stroke-width:2;stroke-linecap:round;stroke-linejoin:round;stroke-dasharray:4.6635;}
	.st7{fill:none;stroke:#000000;stroke-width:2;stroke-linecap:round;stroke-linejoin:round;stroke-dasharray:12.8702,4.2901;}
	.st8{fill:none;stroke:#000000;stroke-width:2;stroke-linecap:round;stroke-linejoin:round;stroke-dasharray:8.4419,2.814;}
	.st9{fill:none;stroke:#000000;stroke-width:2;stroke-linecap:round;stroke-linejoin:round;stroke-dasharray:11.2908,3.7636;}
	.st10{fill:none;stroke:#000000;stroke-width:2;stroke-linecap:round;stroke-linejoin:round;stroke-dasharray:8.9003,2.9668;}
	.st11{fill:none;stroke:#000000;stroke-width:2;stroke-linecap:round;stroke-linejoin:round;stroke-dasharray:6.753,2.251;}
	.st12{fill:none;stroke:#000000;stroke-width:2;stroke-linecap:round;stroke-linejoin:round;stroke-dasharray:11.3525,3.7842;}
	.st13{fill:none;stroke:#000000;stroke-width:2;stroke-linecap:round;stroke-linejoin:round;stroke-dasharray:13.6549,4.5516;}
	.st14{fill:none;stroke:#000000;stroke-width:2;stroke-linecap:round;stroke-linejoin:round;stroke-dasharray:7.8218,2.6073;}
	.st15{fill:none;stroke:#000000;stroke-width:2;stroke-linecap:round;stroke-linejoin:round;stroke-dasharray:10.013,3.3377;}
	.st16{fill:none;stroke:#000000;stroke-width:2;stroke-linecap:round;stroke-linejoin:round;stroke-dasharray:3.2499;}
	.st17{fill:none;stroke:#000000;stroke-width:2;stroke-linecap:round;stroke-linejoin:round;stroke-dasharray:8.217,2.739;}
	.st18{fill:none;stroke:#000000;stroke-width:2;stroke-linecap:round;stroke-linejoin:round;stroke-dasharray:7.9698,2.6566;}
</style>
<g>
	<polygon class="st0" points="25.647,11.79 25.566,14.73 27.942,16.464 25.12,17.295 24.205,20.09 22.543,17.664 19.601,17.657 
		21.396,15.327 20.493,12.527 23.264,13.513 	"/>
	<polygon class="st0" points="17.493,80.648 17.412,83.589 19.788,85.323 16.966,86.154 16.051,88.949 14.389,86.522 11.447,86.516 
		13.242,84.185 12.339,81.386 15.11,82.372 	"/>
	<polygon class="st0" points="74.605,77.323 77.574,79.764 81.267,78.702 79.863,82.28 82.014,85.464 78.178,85.234 75.814,88.264 
		74.847,84.545 71.235,83.232 74.473,81.164 	"/>
	<polygon class="st0" points="85.667,11.286 86.011,14.809 89.107,16.523 85.863,17.938 85.19,21.413 82.841,18.765 79.329,19.198 
		81.121,16.147 79.624,12.94 83.08,13.702 	"/>
	<g>
		<g>
			<g>
				<line class="st3" x1="89.125" y1="48.526" x2="83.125" y2="48.559"/>
				<line class="st4" x1="78.901" y1="48.581" x2="64.118" y2="48.661"/>
				<line class="st3" x1="62.006" y1="48.672" x2="56.006" y2="48.705"/>
			</g>
		</g>
	</g>
	<g>
		<g>
			<g>
				<line class="st3" x1="37.107" y1="48.806" x2="31.107" y2="48.839"/>
				<line class="st5" x1="28.211" y1="48.854" x2="18.073" y2="48.909"/>
				<line class="st3" x1="16.625" y1="48.917" x2="10.625" y2="48.949"/>
			</g>
		</g>
	</g>
	<g>
		<g>
			<g>
				<line class="st3" x1="73.833" y1="57.486" x2="68.174" y2="55.493"/>
				<line class="st3" x1="65.735" y1="54.634" x2="60.075" y2="52.641"/>
			</g>
		</g>
	</g>
	<g>
		<g>
			<line class="st6" x1="82.073" y1="60.852" x2="77.731" y2="59.151"/>
		</g>
	</g>
	<g>
		<g>
			<g>
				<line class="st3" x1="41.932" y1="46.554" x2="36.273" y2="44.561"/>
				<line class="st3" x1="29.478" y1="42.168" x2="23.819" y2="40.175"/>
			</g>
		</g>
	</g>
	<g>
		<g>
			<g>
				<line class="st3" x1="77.773" y1="72.324" x2="73.117" y2="68.539"/>
				<line class="st7" x1="69.788" y1="65.833" x2="58.137" y2="56.362"/>
				<line class="st3" x1="56.472" y1="55.009" x2="51.816" y2="51.224"/>
			</g>
		</g>
	</g>
	<g>
		<g>
			<g>
				<line class="st3" x1="38.834" y1="41.604" x2="34.178" y2="37.819"/>
				<line class="st8" x1="31.994" y1="36.044" x2="24.352" y2="29.832"/>
				<line class="st3" x1="23.26" y1="28.944" x2="18.604" y2="25.16"/>
			</g>
		</g>
	</g>
	<g>
		<g>
			<g>
				<line class="st3" x1="65.206" y1="75.907" x2="62.099" y2="70.774"/>
				<line class="st3" x1="58.477" y1="64.789" x2="55.37" y2="59.657"/>
			</g>
		</g>
	</g>
	<g>
		<g>
			<g>
				<line class="st3" x1="47.175" y1="46.77" x2="44.069" y2="41.637"/>
				<line class="st9" x1="42.12" y1="38.417" x2="35.299" y2="27.148"/>
				<line class="st3" x1="34.325" y1="25.538" x2="31.218" y2="20.405"/>
			</g>
		</g>
	</g>
	<g>
		<g>
			<g>
				<line class="st3" x1="56.206" y1="85.916" x2="55.012" y2="80.036"/>
				<line class="st10" x1="54.422" y1="77.129" x2="52.356" y2="66.953"/>
				<line class="st3" x1="52.061" y1="65.499" x2="50.867" y2="59.619"/>
			</g>
		</g>
	</g>
	<g>
		<g>
			<g>
				<line class="st3" x1="46.014" y1="37.089" x2="44.82" y2="31.209"/>
				<line class="st11" x1="44.372" y1="29.003" x2="42.804" y2="21.282"/>
				<line class="st3" x1="42.58" y1="20.179" x2="41.386" y2="14.299"/>
			</g>
		</g>
	</g>
	<g>
		<g>
			<g>
				<line class="st3" x1="49.798" y1="41.602" x2="50.657" y2="35.664"/>
				<line class="st12" x1="51.199" y1="31.919" x2="53.095" y2="18.811"/>
				<line class="st3" x1="53.366" y1="16.938" x2="54.225" y2="11"/>
			</g>
		</g>
	</g>
	<g>
		<g>
			<g>
				<line class="st3" x1="42.988" y1="89.001" x2="43.847" y2="83.062"/>
				<line class="st13" x1="44.498" y1="78.558" x2="46.779" y2="62.791"/>
				<line class="st3" x1="47.105" y1="60.539" x2="47.964" y2="54.601"/>
			</g>
		</g>
	</g>
	<g>
		<g>
			<g>
				<line class="st3" x1="54.55" y1="37.836" x2="57.361" y2="32.535"/>
				<line class="st14" x1="58.582" y1="30.232" x2="62.858" y2="22.17"/>
				<line class="st3" x1="63.469" y1="21.018" x2="66.28" y2="15.718"/>
			</g>
		</g>
	</g>
	<g>
		<g>
			<g>
				<line class="st3" x1="31.542" y1="80.685" x2="34.354" y2="75.384"/>
				<line class="st14" x1="35.575" y1="73.081" x2="39.851" y2="65.019"/>
				<line class="st3" x1="40.461" y1="63.867" x2="43.273" y2="58.566"/>
			</g>
		</g>
	</g>
	<g>
		<g>
			<g>
				<line class="st3" x1="51.525" y1="46.227" x2="55.959" y2="42.185"/>
				<line class="st15" x1="58.426" y1="39.936" x2="67.059" y2="32.066"/>
				<line class="st3" x1="68.292" y1="30.942" x2="72.726" y2="26.9"/>
			</g>
		</g>
	</g>
	<g>
		<g>
			<g>
				<line class="st3" x1="25.62" y1="69.916" x2="30.054" y2="65.874"/>
				<line class="st15" x1="32.52" y1="63.625" x2="41.153" y2="55.755"/>
				<line class="st3" x1="42.386" y1="54.631" x2="46.82" y2="50.588"/>
			</g>
		</g>
	</g>
	<g>
		<g>
			<line class="st16" x1="20.36" y1="74.533" x2="22.762" y2="72.343"/>
		</g>
	</g>
	<g>
		<g>
			<line class="st16" x1="76.305" y1="23.775" x2="78.706" y2="21.585"/>
		</g>
	</g>
	<g>
		<g>
			<g>
				<line class="st3" x1="59.552" y1="44.244" x2="65.089" y2="41.934"/>
				<line class="st17" x1="67.617" y1="40.879" x2="76.465" y2="37.188"/>
				<line class="st3" x1="77.729" y1="36.661" x2="83.266" y2="34.351"/>
			</g>
		</g>
	</g>
	<g>
		<g>
			<g>
				<line class="st3" x1="17.436" y1="61.124" x2="22.974" y2="58.814"/>
				<line class="st18" x1="25.425" y1="57.791" x2="34.007" y2="54.211"/>
				<line class="st3" x1="35.233" y1="53.699" x2="40.77" y2="51.389"/>
			</g>
		</g>
	</g>
</g>
</svg>
