<?xml version="1.0" encoding="utf-8"?>
<!-- Generator: Adobe Illustrator 21.1.0, SVG Export Plug-In . SVG Version: 6.00 Build 0)  -->
<svg version="1.1" id="Layer_1" xmlns="http://www.w3.org/2000/svg" xmlns:xlink="http://www.w3.org/1999/xlink" x="0px" y="0px"
	 viewBox="0 0 100 100" style="enable-background:new 0 0 100 100;" xml:space="preserve">
<style type="text/css">
	.st0{fill:none;stroke:#000000;stroke-width:2;stroke-linecap:round;stroke-linejoin:round;stroke-miterlimit:10;}
	.st1{fill:none;stroke:#000000;stroke-width:2;stroke-miterlimit:10;}
	.st2{fill:none;stroke:#000000;stroke-width:2;stroke-linecap:round;stroke-miterlimit:10;}
	.st3{fill:none;stroke:#000000;stroke-width:2;stroke-linecap:round;stroke-linejoin:round;}
	.st4{fill:none;stroke:#000000;stroke-width:2;stroke-linecap:round;stroke-linejoin:round;stroke-dasharray:12.6718,4.2239;}
	.st5{fill:none;stroke:#000000;stroke-width:2;stroke-linecap:round;stroke-linejoin:round;stroke-dasharray:8.6895,2.8965;}
	.st6{fill:none;stroke:#000000;stroke-width:2;stroke-linecap:round;stroke-linejoin:round;stroke-dasharray:4.6635;}
	.st7{fill:none;stroke:#000000;stroke-width:2;stroke-linecap:round;stroke-linejoin:round;stroke-dasharray:12.8702,4.2901;}
	.st8{fill:none;stroke:#000000;stroke-width:2;stroke-linecap:round;stroke-linejoin:round;stroke-dasharray:8.4419,2.814;}
	.st9{fill:none;stroke:#000000;stroke-width:2;stroke-linecap:round;stroke-linejoin:round;stroke-dasharray:11.2908,3.7636;}
	.st10{fill:none;stroke:#000000;stroke-width:2;stroke-linecap:round;stroke-linejoin:round;stroke-dasharray:8.9003,2.9668;}
	.st11{fill:none;stroke:#000000;stroke-width:2;stroke-linecap:round;stroke-linejoin:round;stroke-dasharray:6.753,2.251;}
	.st12{fill:none;stroke:#000000;stroke-width:2;stroke-linecap:round;stroke-linejoin:round;stroke-dasharray:11.3525,3.7842;}
	.st13{fill:none;stroke:#000000;stroke-width:2;stroke-linecap:round;stroke-linejoin:round;stroke-dasharray:13.6549,4.5516;}
	.st14{fill:none;stroke:#000000;stroke-width:2;stroke-linecap:round;stroke-linejoin:round;stroke-dasharray:7.8218,2.6073;}
	.st15{fill:none;stroke:#000000;stroke-width:2;stroke-linecap:round;stroke-linejoin:round;stroke-dasharray:10.013,3.3377;}
	.st16{fill:none;stroke:#000000;stroke-width:2;stroke-linecap:round;stroke-linejoin:round;stroke-dasharray:3.2499;}
	.st17{fill:none;stroke:#000000;stroke-width:2;stroke-linecap:round;stroke-linejoin:round;stroke-dasharray:8.217,2.739;}
	.st18{fill:none;stroke:#000000;stroke-width:2;stroke-linecap:round;stroke-linejoin:round;stroke-dasharray:7.9698,2.6566;}
</style>
<g>
	
		<ellipse transform="matrix(0.8297 -0.5582 0.5582 0.8297 -3.4623 19.0349)" class="st0" cx="29.467" cy="15.192" rx="4.115" ry="4.115"/>
	<path class="st0" d="M41.477,49.747c0,6.633-5.377,12.01-12.01,12.01c-6.633,0-12.01-5.377-12.01-12.01
		c0-6.633,12.01-30.439,12.01-30.439S41.477,43.114,41.477,49.747z"/>
	<g>
		
			<ellipse transform="matrix(0.8297 -0.5582 0.5582 0.8297 -28.5842 32.0384)" class="st0" cx="38.218" cy="62.868" rx="3.055" ry="3.055"/>
		<path class="st0" d="M44.714,82.388c0,3.588-2.909,6.496-6.496,6.496s-6.496-2.909-6.496-6.496s6.496-16.465,6.496-16.465
			S44.714,78.8,44.714,82.388z"/>
		
			<ellipse transform="matrix(0.8297 -0.5582 0.5582 0.8297 -31.5639 22.2685)" class="st0" cx="20.716" cy="62.868" rx="3.055" ry="3.055"/>
		<path class="st0" d="M27.213,82.388c0,3.588-2.909,6.496-6.496,6.496c-3.588,0-6.496-2.909-6.496-6.496s6.496-16.465,6.496-16.465
			S27.213,78.8,27.213,82.388z"/>
	</g>
	
		<ellipse transform="matrix(0.8297 -0.5582 0.5582 0.8297 3.695 42.4963)" class="st0" cx="71.499" cy="15.192" rx="4.115" ry="4.115"/>
	<path class="st0" d="M83.508,49.747c0,6.633-5.377,12.01-12.01,12.01c-6.633,0-12.01-5.377-12.01-12.01
		c0-6.633,12.01-30.439,12.01-30.439S83.508,43.114,83.508,49.747z"/>
	<g>
		
			<ellipse transform="matrix(0.8297 -0.5582 0.5582 0.8297 -21.4266 55.4989)" class="st0" cx="80.249" cy="62.868" rx="3.055" ry="3.055"/>
		<path class="st0" d="M86.746,82.388c0,3.588-2.909,6.496-6.496,6.496c-3.588,0-6.496-2.909-6.496-6.496s6.496-16.465,6.496-16.465
			S86.746,78.8,86.746,82.388z"/>
		
			<ellipse transform="matrix(0.8297 -0.5582 0.5582 0.8297 -24.4069 45.7311)" class="st0" cx="62.748" cy="62.868" rx="3.055" ry="3.055"/>
		<path class="st0" d="M69.244,82.388c0,3.588-2.909,6.496-6.496,6.496c-3.588,0-6.496-2.909-6.496-6.496s6.496-16.465,6.496-16.465
			S69.244,78.8,69.244,82.388z"/>
	</g>
</g>
</svg>
