<?xml version="1.0" encoding="utf-8"?>
<!-- Generator: Adobe Illustrator 21.1.0, SVG Export Plug-In . SVG Version: 6.00 Build 0)  -->
<svg version="1.1" id="Layer_1" xmlns="http://www.w3.org/2000/svg" xmlns:xlink="http://www.w3.org/1999/xlink" x="0px" y="0px"
	 viewBox="0 0 100 100" style="enable-background:new 0 0 100 100;" xml:space="preserve">
<style type="text/css">
	.st0{fill:none;stroke:#000000;stroke-width:2;stroke-linecap:round;stroke-linejoin:round;stroke-miterlimit:10;}
	.st1{fill:none;stroke:#000000;stroke-width:2;stroke-miterlimit:10;}
	.st2{fill:none;stroke:#000000;stroke-width:2;stroke-linecap:round;stroke-miterlimit:10;}
	.st3{fill:none;stroke:#000000;stroke-width:2;stroke-linecap:round;stroke-linejoin:round;}
	.st4{fill:none;stroke:#000000;stroke-width:2;stroke-linecap:round;stroke-linejoin:round;stroke-dasharray:12.6718,4.2239;}
	.st5{fill:none;stroke:#000000;stroke-width:2;stroke-linecap:round;stroke-linejoin:round;stroke-dasharray:8.6895,2.8965;}
	.st6{fill:none;stroke:#000000;stroke-width:2;stroke-linecap:round;stroke-linejoin:round;stroke-dasharray:4.6635;}
	.st7{fill:none;stroke:#000000;stroke-width:2;stroke-linecap:round;stroke-linejoin:round;stroke-dasharray:12.8702,4.2901;}
	.st8{fill:none;stroke:#000000;stroke-width:2;stroke-linecap:round;stroke-linejoin:round;stroke-dasharray:8.4419,2.814;}
	.st9{fill:none;stroke:#000000;stroke-width:2;stroke-linecap:round;stroke-linejoin:round;stroke-dasharray:11.2908,3.7636;}
	.st10{fill:none;stroke:#000000;stroke-width:2;stroke-linecap:round;stroke-linejoin:round;stroke-dasharray:8.9003,2.9668;}
	.st11{fill:none;stroke:#000000;stroke-width:2;stroke-linecap:round;stroke-linejoin:round;stroke-dasharray:6.753,2.251;}
	.st12{fill:none;stroke:#000000;stroke-width:2;stroke-linecap:round;stroke-linejoin:round;stroke-dasharray:11.3525,3.7842;}
	.st13{fill:none;stroke:#000000;stroke-width:2;stroke-linecap:round;stroke-linejoin:round;stroke-dasharray:13.6549,4.5516;}
	.st14{fill:none;stroke:#000000;stroke-width:2;stroke-linecap:round;stroke-linejoin:round;stroke-dasharray:7.8218,2.6073;}
	.st15{fill:none;stroke:#000000;stroke-width:2;stroke-linecap:round;stroke-linejoin:round;stroke-dasharray:10.013,3.3377;}
	.st16{fill:none;stroke:#000000;stroke-width:2;stroke-linecap:round;stroke-linejoin:round;stroke-dasharray:3.2499;}
	.st17{fill:none;stroke:#000000;stroke-width:2;stroke-linecap:round;stroke-linejoin:round;stroke-dasharray:8.217,2.739;}
	.st18{fill:none;stroke:#000000;stroke-width:2;stroke-linecap:round;stroke-linejoin:round;stroke-dasharray:7.9698,2.6566;}
</style>
<g>
	<path class="st0" d="M68.252,36.648l-5.997-5.723c-0.354-0.338-0.367-0.898-0.029-1.252l1.568-1.643
		c0.338-0.354,0.898-0.367,1.252-0.029l5.997,5.723c0.354,0.338,0.367,0.898,0.029,1.252l-1.568,1.643
		C69.167,36.973,68.606,36.986,68.252,36.648z"/>
	<path class="st0" d="M65.619,38.989l2.413-2.528l-5.411-5.163l-2.293,2.403c-3.992,4.183-9.031,7.142-14.515,8.972
		c-4.426,1.477-9.98,5.327-12.23,7.684L12.458,72.492c-0.821,0.86-0.789,2.224,0.071,3.045l13.483,12.867
		c0.861,0.821,2.224,0.789,3.045-0.071l21.125-22.136c2.211-2.316,5.795-7.977,7.105-12.416
		C58.914,48.268,61.651,43.147,65.619,38.989z"/>
	<line class="st0" x1="53.359" y1="39.668" x2="59.813" y2="45.827"/>
	
		<ellipse transform="matrix(0.6904 -0.7234 0.7234 0.6904 -34.0889 46.4363)" class="st0" cx="37.207" cy="63.044" rx="10.896" ry="7.12"/>
	<line class="st0" x1="76.46" y1="22.116" x2="71.335" y2="27.241"/>
	<line class="st0" x1="79.297" y1="24.964" x2="74.172" y2="30.089"/>
	<line class="st0" x1="73.484" y1="19.28" x2="68.359" y2="24.405"/>
	<path class="st0" d="M88.334,15.123c0.346,0.346,0.346,0.908,0,1.254l-3.228,3.228c-0.51,0.51-1.336,0.51-1.845,0l0.033,0.032
		l-1.404,1.404c-0.346,0.346-0.908,0.346-1.254,0l-2.082-2.082c-0.346-0.346-0.346-0.908,0-1.254l1.404-1.404l0.032,0.033
		c-0.51-0.51-0.51-1.336,0-1.845l3.228-3.228c0.346-0.346,0.908-0.346,1.254,0L88.334,15.123z"/>
</g>
</svg>
