<?xml version="1.0" encoding="utf-8"?>
<!-- Generator: Adobe Illustrator 21.1.0, SVG Export Plug-In . SVG Version: 6.00 Build 0)  -->
<svg version="1.1" id="Layer_1" xmlns="http://www.w3.org/2000/svg" xmlns:xlink="http://www.w3.org/1999/xlink" x="0px" y="0px"
	 viewBox="0 0 100 100" style="enable-background:new 0 0 100 100;" xml:space="preserve">
<style type="text/css">
	.st0{fill:none;stroke:#000000;stroke-width:2;stroke-linecap:round;stroke-linejoin:round;stroke-miterlimit:10;}
	.st1{fill:none;stroke:#000000;stroke-width:2;stroke-miterlimit:10;}
	.st2{fill:none;stroke:#000000;stroke-width:2;stroke-linecap:round;stroke-miterlimit:10;}
	.st3{fill:none;stroke:#000000;stroke-width:2;stroke-linecap:round;stroke-linejoin:round;}
	.st4{fill:none;stroke:#000000;stroke-width:2;stroke-linecap:round;stroke-linejoin:round;stroke-dasharray:12.6718,4.2239;}
	.st5{fill:none;stroke:#000000;stroke-width:2;stroke-linecap:round;stroke-linejoin:round;stroke-dasharray:8.6895,2.8965;}
	.st6{fill:none;stroke:#000000;stroke-width:2;stroke-linecap:round;stroke-linejoin:round;stroke-dasharray:4.6635;}
	.st7{fill:none;stroke:#000000;stroke-width:2;stroke-linecap:round;stroke-linejoin:round;stroke-dasharray:12.8702,4.2901;}
	.st8{fill:none;stroke:#000000;stroke-width:2;stroke-linecap:round;stroke-linejoin:round;stroke-dasharray:8.4419,2.814;}
	.st9{fill:none;stroke:#000000;stroke-width:2;stroke-linecap:round;stroke-linejoin:round;stroke-dasharray:11.2908,3.7636;}
	.st10{fill:none;stroke:#000000;stroke-width:2;stroke-linecap:round;stroke-linejoin:round;stroke-dasharray:8.9003,2.9668;}
	.st11{fill:none;stroke:#000000;stroke-width:2;stroke-linecap:round;stroke-linejoin:round;stroke-dasharray:6.753,2.251;}
	.st12{fill:none;stroke:#000000;stroke-width:2;stroke-linecap:round;stroke-linejoin:round;stroke-dasharray:11.3525,3.7842;}
	.st13{fill:none;stroke:#000000;stroke-width:2;stroke-linecap:round;stroke-linejoin:round;stroke-dasharray:13.6549,4.5516;}
	.st14{fill:none;stroke:#000000;stroke-width:2;stroke-linecap:round;stroke-linejoin:round;stroke-dasharray:7.8218,2.6073;}
	.st15{fill:none;stroke:#000000;stroke-width:2;stroke-linecap:round;stroke-linejoin:round;stroke-dasharray:10.013,3.3377;}
	.st16{fill:none;stroke:#000000;stroke-width:2;stroke-linecap:round;stroke-linejoin:round;stroke-dasharray:3.2499;}
	.st17{fill:none;stroke:#000000;stroke-width:2;stroke-linecap:round;stroke-linejoin:round;stroke-dasharray:8.217,2.739;}
	.st18{fill:none;stroke:#000000;stroke-width:2;stroke-linecap:round;stroke-linejoin:round;stroke-dasharray:7.9698,2.6566;}
</style>
<g>
	<polygon class="st0" points="63.402,81.556 60.433,89 11.758,69.587 25.294,35.649 73.968,55.063 	"/>
	<line class="st0" x1="36.934" y1="63.709" x2="11.758" y2="69.587"/>
	<line class="st0" x1="45.997" y1="67.083" x2="59.843" y2="88.104"/>
	<path class="st0" d="M73.968,55.063L45.166,67.44c-2.895,1.244-6.25-0.094-7.494-2.989L25.294,35.649"/>
	<g>
		<path class="st0" d="M46.964,52.638c3.108-2.323,6.411,1.385,4.225,4.55C49.049,60.285,43.9,60.32,43.9,60.32
			s-3.712-3.569-3.132-7.288C41.36,49.231,46.307,48.813,46.964,52.638z"/>
	</g>
	<g>
		<path class="st0" d="M57.299,26.037c1.12-3.334,5.495-2.272,5.496,1.216c0.001,3.413-3.821,6.093-3.821,6.093
			s-4.608-0.749-6.093-3.821C51.363,26.385,54.838,23.523,57.299,26.037z"/>
	</g>
	<polyline class="st0" points="39.764,41.421 34.894,20.169 74.913,11 88.492,70.263 65.836,75.454 	"/>
	<line class="st0" x1="47.37" y1="44.316" x2="72.334" y2="38.596"/>
	<line class="st0" x1="60.712" y1="49.571" x2="74.143" y2="46.494"/>
	<line class="st0" x1="72.886" y1="55.094" x2="75.953" y2="54.391"/>
	<line class="st0" x1="70.603" y1="63.929" x2="77.762" y2="62.288"/>
</g>
</svg>
