<?xml version="1.0" encoding="utf-8"?>
<!-- Generator: Adobe Illustrator 21.1.0, SVG Export Plug-In . SVG Version: 6.00 Build 0)  -->
<svg version="1.1" id="Layer_1" xmlns="http://www.w3.org/2000/svg" xmlns:xlink="http://www.w3.org/1999/xlink" x="0px" y="0px"
	 viewBox="0 0 100 100" style="enable-background:new 0 0 100 100;" xml:space="preserve">
<style type="text/css">
	.st0{fill:none;stroke:#000000;stroke-width:2;stroke-linecap:round;stroke-linejoin:round;stroke-miterlimit:10;}
	.st1{fill:none;stroke:#000000;stroke-width:2;stroke-miterlimit:10;}
	.st2{fill:none;stroke:#000000;stroke-width:2;stroke-linecap:round;stroke-miterlimit:10;}
	.st3{fill:none;stroke:#000000;stroke-width:2;stroke-linecap:round;stroke-linejoin:round;}
	.st4{fill:none;stroke:#000000;stroke-width:2;stroke-linecap:round;stroke-linejoin:round;stroke-dasharray:12.6718,4.2239;}
	.st5{fill:none;stroke:#000000;stroke-width:2;stroke-linecap:round;stroke-linejoin:round;stroke-dasharray:8.6895,2.8965;}
	.st6{fill:none;stroke:#000000;stroke-width:2;stroke-linecap:round;stroke-linejoin:round;stroke-dasharray:4.6635;}
	.st7{fill:none;stroke:#000000;stroke-width:2;stroke-linecap:round;stroke-linejoin:round;stroke-dasharray:12.8702,4.2901;}
	.st8{fill:none;stroke:#000000;stroke-width:2;stroke-linecap:round;stroke-linejoin:round;stroke-dasharray:8.4419,2.814;}
	.st9{fill:none;stroke:#000000;stroke-width:2;stroke-linecap:round;stroke-linejoin:round;stroke-dasharray:11.2908,3.7636;}
	.st10{fill:none;stroke:#000000;stroke-width:2;stroke-linecap:round;stroke-linejoin:round;stroke-dasharray:8.9003,2.9668;}
	.st11{fill:none;stroke:#000000;stroke-width:2;stroke-linecap:round;stroke-linejoin:round;stroke-dasharray:6.753,2.251;}
	.st12{fill:none;stroke:#000000;stroke-width:2;stroke-linecap:round;stroke-linejoin:round;stroke-dasharray:11.3525,3.7842;}
	.st13{fill:none;stroke:#000000;stroke-width:2;stroke-linecap:round;stroke-linejoin:round;stroke-dasharray:13.6549,4.5516;}
	.st14{fill:none;stroke:#000000;stroke-width:2;stroke-linecap:round;stroke-linejoin:round;stroke-dasharray:7.8218,2.6073;}
	.st15{fill:none;stroke:#000000;stroke-width:2;stroke-linecap:round;stroke-linejoin:round;stroke-dasharray:10.013,3.3377;}
	.st16{fill:none;stroke:#000000;stroke-width:2;stroke-linecap:round;stroke-linejoin:round;stroke-dasharray:3.2499;}
	.st17{fill:none;stroke:#000000;stroke-width:2;stroke-linecap:round;stroke-linejoin:round;stroke-dasharray:8.217,2.739;}
	.st18{fill:none;stroke:#000000;stroke-width:2;stroke-linecap:round;stroke-linejoin:round;stroke-dasharray:7.9698,2.6566;}
</style>
<g>
	<polygon class="st0" points="21.528,30.892 21.467,33.081 23.236,34.371 21.136,34.99 20.454,37.071 19.217,35.265 17.028,35.26 
		18.363,33.525 17.691,31.441 19.754,32.175 	"/>
	<polygon class="st0" points="75.522,17.618 75.43,20.955 78.126,22.923 74.924,23.866 73.886,27.038 71.999,24.284 68.662,24.277 
		70.698,21.632 69.673,18.455 72.818,19.574 	"/>
	<polygon class="st0" points="31.124,14.207 31.038,17.301 33.538,19.126 30.569,20.001 29.606,22.943 27.857,20.389 24.761,20.382 
		26.649,17.929 25.699,14.983 28.616,16.021 	"/>
	<polygon class="st0" points="59.814,37.515 59.733,40.455 62.109,42.189 59.287,43.021 58.372,45.816 56.71,43.389 53.768,43.383 
		55.563,41.052 54.66,38.253 57.431,39.239 	"/>
	<line class="st0" x1="85.134" y1="24.931" x2="83.41" y2="26.654"/>
	<line class="st0" x1="80.507" y1="29.614" x2="76.937" y2="33.184"/>
	<line class="st0" x1="17.669" y1="45.121" x2="8.959" y2="45.121"/>
	<line class="st0" x1="91.074" y1="45.121" x2="82.365" y2="45.121"/>
	<line class="st0" x1="20.669" y1="23.473" x2="27.182" y2="29.987"/>
	<g>
		<path class="st0" d="M50.125,54.286c3.669-5.992,11.711-1.971,10.157,4.818c-1.521,6.644-10.157,10.157-10.157,10.157
			s-8.638-3.513-10.157-10.157C38.414,52.315,46.455,48.294,50.125,54.286z"/>
	</g>
	<path class="st0" d="M40.832,39.323c-6.293,2.348-11.129,7.689-12.775,14.291"/>
	<path class="st0" d="M52.76,30.287h-5.27c-2.378,0-4.324-1.946-4.324-4.324V15.325c0-2.378,1.946-4.324,4.324-4.324h5.27
		c2.378,0,4.324,1.946,4.324,4.324v10.639C57.084,28.342,55.138,30.287,52.76,30.287z"/>
	<line class="st0" x1="63.803" y1="83.771" x2="36.447" y2="83.771"/>
	<path class="st0" d="M80.68,58.871c-0.768-11.864-8.46-21.986-19.027-26.322V20.298c0-1.402-1.147-2.549-2.549-2.549H41.145
		c-1.402,0-2.549,1.147-2.549,2.549v12.244c-11.196,4.555-19.093,15.535-19.093,28.367c0,9.571,4.391,18.116,11.268,23.731v2.7
		c0,0.917,0.743,1.66,1.66,1.66h35.52c0.928,0,1.676-0.761,1.66-1.688l-0.046-2.743C76.876,78.556,81.35,69.22,80.68,58.871z"/>
</g>
</svg>
