<?xml version="1.0" encoding="utf-8"?>
<!-- Generator: Adobe Illustrator 21.1.0, SVG Export Plug-In . SVG Version: 6.00 Build 0)  -->
<svg version="1.1" id="Layer_1" xmlns="http://www.w3.org/2000/svg" xmlns:xlink="http://www.w3.org/1999/xlink" x="0px" y="0px"
	 viewBox="0 0 100 100" style="enable-background:new 0 0 100 100;" xml:space="preserve">
<style type="text/css">
	.st0{fill:none;stroke:#000000;stroke-width:2;stroke-linecap:round;stroke-linejoin:round;stroke-miterlimit:10;}
	.st1{fill:none;stroke:#000000;stroke-width:2;stroke-miterlimit:10;}
	.st2{fill:none;stroke:#000000;stroke-width:2;stroke-linecap:round;stroke-miterlimit:10;}
	.st3{fill:none;stroke:#000000;stroke-width:2;stroke-linecap:round;stroke-linejoin:round;}
	.st4{fill:none;stroke:#000000;stroke-width:2;stroke-linecap:round;stroke-linejoin:round;stroke-dasharray:12.6718,4.2239;}
	.st5{fill:none;stroke:#000000;stroke-width:2;stroke-linecap:round;stroke-linejoin:round;stroke-dasharray:8.6895,2.8965;}
	.st6{fill:none;stroke:#000000;stroke-width:2;stroke-linecap:round;stroke-linejoin:round;stroke-dasharray:4.6635;}
	.st7{fill:none;stroke:#000000;stroke-width:2;stroke-linecap:round;stroke-linejoin:round;stroke-dasharray:12.8702,4.2901;}
	.st8{fill:none;stroke:#000000;stroke-width:2;stroke-linecap:round;stroke-linejoin:round;stroke-dasharray:8.4419,2.814;}
	.st9{fill:none;stroke:#000000;stroke-width:2;stroke-linecap:round;stroke-linejoin:round;stroke-dasharray:11.2908,3.7636;}
	.st10{fill:none;stroke:#000000;stroke-width:2;stroke-linecap:round;stroke-linejoin:round;stroke-dasharray:8.9003,2.9668;}
	.st11{fill:none;stroke:#000000;stroke-width:2;stroke-linecap:round;stroke-linejoin:round;stroke-dasharray:6.753,2.251;}
	.st12{fill:none;stroke:#000000;stroke-width:2;stroke-linecap:round;stroke-linejoin:round;stroke-dasharray:11.3525,3.7842;}
	.st13{fill:none;stroke:#000000;stroke-width:2;stroke-linecap:round;stroke-linejoin:round;stroke-dasharray:13.6549,4.5516;}
	.st14{fill:none;stroke:#000000;stroke-width:2;stroke-linecap:round;stroke-linejoin:round;stroke-dasharray:7.8218,2.6073;}
	.st15{fill:none;stroke:#000000;stroke-width:2;stroke-linecap:round;stroke-linejoin:round;stroke-dasharray:10.013,3.3377;}
	.st16{fill:none;stroke:#000000;stroke-width:2;stroke-linecap:round;stroke-linejoin:round;stroke-dasharray:3.2499;}
	.st17{fill:none;stroke:#000000;stroke-width:2;stroke-linecap:round;stroke-linejoin:round;stroke-dasharray:8.217,2.739;}
	.st18{fill:none;stroke:#000000;stroke-width:2;stroke-linecap:round;stroke-linejoin:round;stroke-dasharray:7.9698,2.6566;}
</style>
<g>
	<path class="st0" d="M60.245,28.368V12.98c0-1.094-0.919-1.98-2.053-1.98H41.629c-1.134,0-2.053,0.887-2.053,1.98v15.388"/>
	<path class="st0" d="M64.388,51.682V31.086c0-1.146-0.968-2.075-2.163-2.075H37.595c-1.195,0-2.163,0.929-2.163,2.075v20.597"/>
	<path class="st0" d="M27.526,89.118h44.767V55.565c0-1.61-1.305-2.916-2.916-2.916H30.442c-1.61,0-2.916,1.305-2.916,2.916V89.118z
		"/>
	<circle class="st1" cx="59.018" cy="40.347" r="0.53"/>
	<circle class="st1" cx="49.91" cy="40.347" r="0.53"/>
	<circle class="st1" cx="49.91" cy="16.996" r="0.53"/>
	<circle class="st1" cx="40.803" cy="40.347" r="0.53"/>
	<circle class="st1" cx="55.254" cy="70.883" r="0.53"/>
	<circle class="st1" cx="65.737" cy="70.883" r="0.53"/>
	<circle class="st1" cx="44.668" cy="70.883" r="0.53"/>
	<circle class="st1" cx="34.083" cy="70.883" r="0.53"/>
	<line class="st0" x1="28.167" y1="63.833" x2="71.833" y2="63.833"/>
	<line class="st0" x1="28.167" y1="77.5" x2="71.833" y2="77.5"/>
	<line class="st0" x1="35.833" y1="35.5" x2="64.167" y2="35.5"/>
	<line class="st0" x1="35.833" y1="45.194" x2="64.167" y2="45.194"/>
	<line class="st0" x1="40.272" y1="21.843" x2="59.727" y2="21.843"/>
</g>
</svg>
