<?xml version="1.0" encoding="utf-8"?>
<!-- Generator: Adobe Illustrator 21.1.0, SVG Export Plug-In . SVG Version: 6.00 Build 0)  -->
<svg version="1.1" id="Layer_1" xmlns="http://www.w3.org/2000/svg" xmlns:xlink="http://www.w3.org/1999/xlink" x="0px" y="0px"
	 viewBox="0 0 100 100" style="enable-background:new 0 0 100 100;" xml:space="preserve">
<style type="text/css">
	.st0{fill:none;stroke:#000000;stroke-width:2;stroke-linecap:round;stroke-linejoin:round;stroke-miterlimit:10;}
	.st1{fill:none;stroke:#000000;stroke-width:2;stroke-miterlimit:10;}
	.st2{fill:none;stroke:#000000;stroke-width:2;stroke-linecap:round;stroke-miterlimit:10;}
	.st3{fill:none;stroke:#000000;stroke-width:2;stroke-linecap:round;stroke-linejoin:round;}
	.st4{fill:none;stroke:#000000;stroke-width:2;stroke-linecap:round;stroke-linejoin:round;stroke-dasharray:12.6718,4.2239;}
	.st5{fill:none;stroke:#000000;stroke-width:2;stroke-linecap:round;stroke-linejoin:round;stroke-dasharray:8.6895,2.8965;}
	.st6{fill:none;stroke:#000000;stroke-width:2;stroke-linecap:round;stroke-linejoin:round;stroke-dasharray:4.6635;}
	.st7{fill:none;stroke:#000000;stroke-width:2;stroke-linecap:round;stroke-linejoin:round;stroke-dasharray:12.8702,4.2901;}
	.st8{fill:none;stroke:#000000;stroke-width:2;stroke-linecap:round;stroke-linejoin:round;stroke-dasharray:8.4419,2.814;}
	.st9{fill:none;stroke:#000000;stroke-width:2;stroke-linecap:round;stroke-linejoin:round;stroke-dasharray:11.2908,3.7636;}
	.st10{fill:none;stroke:#000000;stroke-width:2;stroke-linecap:round;stroke-linejoin:round;stroke-dasharray:8.9003,2.9668;}
	.st11{fill:none;stroke:#000000;stroke-width:2;stroke-linecap:round;stroke-linejoin:round;stroke-dasharray:6.753,2.251;}
	.st12{fill:none;stroke:#000000;stroke-width:2;stroke-linecap:round;stroke-linejoin:round;stroke-dasharray:11.3525,3.7842;}
	.st13{fill:none;stroke:#000000;stroke-width:2;stroke-linecap:round;stroke-linejoin:round;stroke-dasharray:13.6549,4.5516;}
	.st14{fill:none;stroke:#000000;stroke-width:2;stroke-linecap:round;stroke-linejoin:round;stroke-dasharray:7.8218,2.6073;}
	.st15{fill:none;stroke:#000000;stroke-width:2;stroke-linecap:round;stroke-linejoin:round;stroke-dasharray:10.013,3.3377;}
	.st16{fill:none;stroke:#000000;stroke-width:2;stroke-linecap:round;stroke-linejoin:round;stroke-dasharray:3.2499;}
	.st17{fill:none;stroke:#000000;stroke-width:2;stroke-linecap:round;stroke-linejoin:round;stroke-dasharray:8.217,2.739;}
	.st18{fill:none;stroke:#000000;stroke-width:2;stroke-linecap:round;stroke-linejoin:round;stroke-dasharray:7.9698,2.6566;}
</style>
<g>
	<polygon class="st0" points="58.879,89 38.682,68.663 46.396,54.83 71.362,54.83 79.076,68.663 	"/>
	<line class="st0" x1="38.682" y1="68.663" x2="79.076" y2="68.663"/>
	<polygon class="st0" points="58.659,88.58 51.125,68.721 58.659,54.99 66.193,68.721 	"/>
	<polygon class="st0" points="80.515,35.232 75.242,42.024 66.724,40.853 60.45,25.458 65.724,18.667 74.242,19.838 	"/>
	<polygon class="st0" points="87.846,36.619 78.357,49.669 62.451,46.968 53.12,24.072 62.608,11.022 78.515,13.722 	"/>
	<line class="st0" x1="62.608" y1="11.022" x2="65.724" y2="18.667"/>
	<line class="st0" x1="75.242" y1="42.024" x2="78.357" y2="49.669"/>
	<line class="st0" x1="60.45" y1="25.458" x2="53.12" y2="24.072"/>
	<line class="st0" x1="62.451" y1="46.968" x2="66.724" y2="40.853"/>
	<line class="st0" x1="74.242" y1="19.838" x2="78.515" y2="13.722"/>
	<line class="st0" x1="80.515" y1="35.232" x2="87.846" y2="36.619"/>
	<polygon class="st0" points="38.623,41.288 29.395,46.615 20.168,41.288 20.168,30.67 29.395,25.342 38.623,30.67 	"/>
	<polygon class="st0" points="46.386,46.307 29.395,56.845 12.404,46.307 12.404,25.65 29.395,15.112 46.386,25.65 	"/>
	<line class="st0" x1="29.395" y1="15.112" x2="29.395" y2="25.342"/>
	<line class="st0" x1="29.395" y1="46.615" x2="29.395" y2="56.845"/>
	<line class="st0" x1="20.168" y1="30.67" x2="12.404" y2="25.65"/>
	<line class="st0" x1="12.404" y1="46.307" x2="20.168" y2="41.288"/>
	<line class="st0" x1="38.623" y1="30.67" x2="46.386" y2="25.65"/>
	<line class="st0" x1="38.623" y1="41.288" x2="46.386" y2="46.307"/>
</g>
</svg>
