<?xml version="1.0" encoding="utf-8"?>
<!-- Generator: Adobe Illustrator 21.1.0, SVG Export Plug-In . SVG Version: 6.00 Build 0)  -->
<svg version="1.1" id="Layer_1" xmlns="http://www.w3.org/2000/svg" xmlns:xlink="http://www.w3.org/1999/xlink" x="0px" y="0px"
	 viewBox="0 0 100 100" style="enable-background:new 0 0 100 100;" xml:space="preserve">
<style type="text/css">
	.st0{fill:none;stroke:#000000;stroke-width:2;stroke-linecap:round;stroke-linejoin:round;stroke-miterlimit:10;}
	.st1{fill:none;stroke:#000000;stroke-width:2;stroke-miterlimit:10;}
	.st2{fill:none;stroke:#000000;stroke-width:2;stroke-linecap:round;stroke-miterlimit:10;}
	.st3{fill:none;stroke:#000000;stroke-width:2;stroke-linecap:round;stroke-linejoin:round;}
	.st4{fill:none;stroke:#000000;stroke-width:2;stroke-linecap:round;stroke-linejoin:round;stroke-dasharray:12.6718,4.2239;}
	.st5{fill:none;stroke:#000000;stroke-width:2;stroke-linecap:round;stroke-linejoin:round;stroke-dasharray:8.6895,2.8965;}
	.st6{fill:none;stroke:#000000;stroke-width:2;stroke-linecap:round;stroke-linejoin:round;stroke-dasharray:4.6635;}
	.st7{fill:none;stroke:#000000;stroke-width:2;stroke-linecap:round;stroke-linejoin:round;stroke-dasharray:12.8702,4.2901;}
	.st8{fill:none;stroke:#000000;stroke-width:2;stroke-linecap:round;stroke-linejoin:round;stroke-dasharray:8.4419,2.814;}
	.st9{fill:none;stroke:#000000;stroke-width:2;stroke-linecap:round;stroke-linejoin:round;stroke-dasharray:11.2908,3.7636;}
	.st10{fill:none;stroke:#000000;stroke-width:2;stroke-linecap:round;stroke-linejoin:round;stroke-dasharray:8.9003,2.9668;}
	.st11{fill:none;stroke:#000000;stroke-width:2;stroke-linecap:round;stroke-linejoin:round;stroke-dasharray:6.753,2.251;}
	.st12{fill:none;stroke:#000000;stroke-width:2;stroke-linecap:round;stroke-linejoin:round;stroke-dasharray:11.3525,3.7842;}
	.st13{fill:none;stroke:#000000;stroke-width:2;stroke-linecap:round;stroke-linejoin:round;stroke-dasharray:13.6549,4.5516;}
	.st14{fill:none;stroke:#000000;stroke-width:2;stroke-linecap:round;stroke-linejoin:round;stroke-dasharray:7.8218,2.6073;}
	.st15{fill:none;stroke:#000000;stroke-width:2;stroke-linecap:round;stroke-linejoin:round;stroke-dasharray:10.013,3.3377;}
	.st16{fill:none;stroke:#000000;stroke-width:2;stroke-linecap:round;stroke-linejoin:round;stroke-dasharray:3.2499;}
	.st17{fill:none;stroke:#000000;stroke-width:2;stroke-linecap:round;stroke-linejoin:round;stroke-dasharray:8.217,2.739;}
	.st18{fill:none;stroke:#000000;stroke-width:2;stroke-linecap:round;stroke-linejoin:round;stroke-dasharray:7.9698,2.6566;}
</style>
<g>
	<path class="st0" d="M45.04,35.57c0.739-1.266,1.332-2.649,1.722-4.146c2.256-8.653-2.74-17.547-11.158-19.866
		c-8.418-2.319-17.071,2.817-19.327,11.47c-0.419,1.609-0.586,3.227-0.529,4.809c-1.962,0.622-3.581,2.23-4.152,4.419
		c-0.883,3.386,1.072,6.866,4.366,7.774c1.756,0.484,3.534,0.132,4.949-0.808c1.803,1.688,4.006,2.979,6.524,3.672
		c2.689,0.741,5.4,0.714,7.921,0.061c0.735,1.677,2.169,3.014,4.032,3.527c3.294,0.907,6.68-1.102,7.563-4.488
		C47.581,39.574,46.759,37.112,45.04,35.57z"/>
	<path class="st0" d="M41.169,46.971L17.304,88.766c-0.232,0.406-0.835,0.253-0.856-0.217l-2.267-49.01"/>
	<path class="st0" d="M84.134,27.675c0.024-1.476-0.135-2.979-0.526-4.476C81.353,14.546,72.7,9.411,64.281,11.729
		c-8.418,2.319-13.414,11.213-11.158,19.866c0.42,1.61,1.062,3.096,1.882,4.437c-1.397,1.547-2.017,3.771-1.446,5.961
		c0.883,3.386,4.269,5.396,7.563,4.488c1.756-0.484,3.125-1.702,3.893-3.243c2.382,0.535,4.918,0.521,7.436-0.173
		c2.689-0.741,5.024-2.157,6.89-4.018c1.452,1.074,3.344,1.495,5.207,0.982c3.294-0.907,5.249-4.388,4.366-7.774
		C88.283,29.837,86.373,28.127,84.134,27.675z"/>
	<path class="st0" d="M86.327,39.538l-0.337,48.46c-0.003,0.47-0.6,0.648-0.847,0.252L59.34,46.971"/>
	<path class="st0" d="M53.353,28.575c3.651-1.005,5.161,4.788,8.812,3.783c3.65-1.005,2.139-6.799,5.789-7.804
		c3.652-1.006,5.163,4.788,8.815,3.782c3.652-1.006,2.142-6.8,5.794-7.806"/>
</g>
</svg>
