<?xml version="1.0" encoding="utf-8"?>
<!-- Generator: Adobe Illustrator 21.1.0, SVG Export Plug-In . SVG Version: 6.00 Build 0)  -->
<svg version="1.1" id="Layer_1" xmlns="http://www.w3.org/2000/svg" xmlns:xlink="http://www.w3.org/1999/xlink" x="0px" y="0px"
	 viewBox="0 0 100 100" style="enable-background:new 0 0 100 100;" xml:space="preserve">
<style type="text/css">
	.st0{fill:none;stroke:#000000;stroke-width:2;stroke-linecap:round;stroke-linejoin:round;stroke-miterlimit:10;}
	.st1{fill:none;stroke:#000000;stroke-width:2;stroke-miterlimit:10;}
	.st2{fill:none;stroke:#000000;stroke-width:2;stroke-linecap:round;stroke-miterlimit:10;}
	.st3{fill:none;stroke:#000000;stroke-width:2;stroke-linecap:round;stroke-linejoin:round;}
	.st4{fill:none;stroke:#000000;stroke-width:2;stroke-linecap:round;stroke-linejoin:round;stroke-dasharray:12.6718,4.2239;}
	.st5{fill:none;stroke:#000000;stroke-width:2;stroke-linecap:round;stroke-linejoin:round;stroke-dasharray:8.6895,2.8965;}
	.st6{fill:none;stroke:#000000;stroke-width:2;stroke-linecap:round;stroke-linejoin:round;stroke-dasharray:4.6635;}
	.st7{fill:none;stroke:#000000;stroke-width:2;stroke-linecap:round;stroke-linejoin:round;stroke-dasharray:12.8702,4.2901;}
	.st8{fill:none;stroke:#000000;stroke-width:2;stroke-linecap:round;stroke-linejoin:round;stroke-dasharray:8.4419,2.814;}
	.st9{fill:none;stroke:#000000;stroke-width:2;stroke-linecap:round;stroke-linejoin:round;stroke-dasharray:11.2908,3.7636;}
	.st10{fill:none;stroke:#000000;stroke-width:2;stroke-linecap:round;stroke-linejoin:round;stroke-dasharray:8.9003,2.9668;}
	.st11{fill:none;stroke:#000000;stroke-width:2;stroke-linecap:round;stroke-linejoin:round;stroke-dasharray:6.753,2.251;}
	.st12{fill:none;stroke:#000000;stroke-width:2;stroke-linecap:round;stroke-linejoin:round;stroke-dasharray:11.3525,3.7842;}
	.st13{fill:none;stroke:#000000;stroke-width:2;stroke-linecap:round;stroke-linejoin:round;stroke-dasharray:13.6549,4.5516;}
	.st14{fill:none;stroke:#000000;stroke-width:2;stroke-linecap:round;stroke-linejoin:round;stroke-dasharray:7.8218,2.6073;}
	.st15{fill:none;stroke:#000000;stroke-width:2;stroke-linecap:round;stroke-linejoin:round;stroke-dasharray:10.013,3.3377;}
	.st16{fill:none;stroke:#000000;stroke-width:2;stroke-linecap:round;stroke-linejoin:round;stroke-dasharray:3.2499;}
	.st17{fill:none;stroke:#000000;stroke-width:2;stroke-linecap:round;stroke-linejoin:round;stroke-dasharray:8.217,2.739;}
	.st18{fill:none;stroke:#000000;stroke-width:2;stroke-linecap:round;stroke-linejoin:round;stroke-dasharray:7.9698,2.6566;}
</style>
<g>
	<path class="st0" d="M48.1,54.259c-1.75-7.236,6.79-11.639,10.792-5.284c1.885-3.165,4.925-3.765,7.349-2.7
		c1.005-10.484-11.644-16.052-17.415-6.361c-6.298-10.002-19.739-3.071-16.984,8.317c2.694,11.143,17.296,16.873,17.296,16.873
		s2.261-0.956,5.142-2.799C51.735,60.509,48.961,57.819,48.1,54.259z"/>
	<g>
		<path class="st0" d="M58.932,48.974c3.842-6.452,12.49-2.262,10.92,5.015c-1.537,7.121-10.721,10.99-10.721,10.99
			s-9.278-3.64-10.99-10.721C46.389,47.022,54.931,42.619,58.932,48.974z"/>
	</g>
	<line class="st0" x1="20.167" y1="16.049" x2="25.701" y2="16.049"/>
	<line class="st0" x1="20.167" y1="22.148" x2="25.701" y2="22.148"/>
	<line class="st0" x1="20.167" y1="28.247" x2="25.701" y2="28.247"/>
	<line class="st0" x1="20.167" y1="34.347" x2="25.701" y2="34.347"/>
	<line class="st0" x1="20.167" y1="40.446" x2="25.701" y2="40.446"/>
	<line class="st0" x1="20.167" y1="46.545" x2="25.701" y2="46.545"/>
	<line class="st0" x1="20.167" y1="52.645" x2="25.701" y2="52.645"/>
	<line class="st0" x1="20.167" y1="58.744" x2="25.701" y2="58.744"/>
	<line class="st0" x1="20.167" y1="64.843" x2="25.701" y2="64.843"/>
	<line class="st0" x1="20.167" y1="70.942" x2="25.701" y2="70.942"/>
	<line class="st0" x1="20.167" y1="77.041" x2="25.701" y2="77.041"/>
	<line class="st0" x1="20.167" y1="83.141" x2="25.701" y2="83.141"/>
	<rect x="22.934" y="11.001" class="st0" width="57.066" height="78"/>
</g>
</svg>
