<?xml version="1.0" encoding="utf-8"?>
<!-- Generator: Adobe Illustrator 21.1.0, SVG Export Plug-In . SVG Version: 6.00 Build 0)  -->
<svg version="1.1" id="Layer_1" xmlns="http://www.w3.org/2000/svg" xmlns:xlink="http://www.w3.org/1999/xlink" x="0px" y="0px"
	 viewBox="0 0 100 100" style="enable-background:new 0 0 100 100;" xml:space="preserve">
<style type="text/css">
	.st0{fill:none;stroke:#000000;stroke-width:2;stroke-linecap:round;stroke-linejoin:round;stroke-miterlimit:10;}
	.st1{fill:none;stroke:#000000;stroke-width:2;stroke-miterlimit:10;}
	.st2{fill:none;stroke:#000000;stroke-width:2;stroke-linecap:round;stroke-miterlimit:10;}
	.st3{fill:none;stroke:#000000;stroke-width:2;stroke-linecap:round;stroke-linejoin:round;}
	.st4{fill:none;stroke:#000000;stroke-width:2;stroke-linecap:round;stroke-linejoin:round;stroke-dasharray:12.6718,4.2239;}
	.st5{fill:none;stroke:#000000;stroke-width:2;stroke-linecap:round;stroke-linejoin:round;stroke-dasharray:8.6895,2.8965;}
	.st6{fill:none;stroke:#000000;stroke-width:2;stroke-linecap:round;stroke-linejoin:round;stroke-dasharray:4.6635;}
	.st7{fill:none;stroke:#000000;stroke-width:2;stroke-linecap:round;stroke-linejoin:round;stroke-dasharray:12.8702,4.2901;}
	.st8{fill:none;stroke:#000000;stroke-width:2;stroke-linecap:round;stroke-linejoin:round;stroke-dasharray:8.4419,2.814;}
	.st9{fill:none;stroke:#000000;stroke-width:2;stroke-linecap:round;stroke-linejoin:round;stroke-dasharray:11.2908,3.7636;}
	.st10{fill:none;stroke:#000000;stroke-width:2;stroke-linecap:round;stroke-linejoin:round;stroke-dasharray:8.9003,2.9668;}
	.st11{fill:none;stroke:#000000;stroke-width:2;stroke-linecap:round;stroke-linejoin:round;stroke-dasharray:6.753,2.251;}
	.st12{fill:none;stroke:#000000;stroke-width:2;stroke-linecap:round;stroke-linejoin:round;stroke-dasharray:11.3525,3.7842;}
	.st13{fill:none;stroke:#000000;stroke-width:2;stroke-linecap:round;stroke-linejoin:round;stroke-dasharray:13.6549,4.5516;}
	.st14{fill:none;stroke:#000000;stroke-width:2;stroke-linecap:round;stroke-linejoin:round;stroke-dasharray:7.8218,2.6073;}
	.st15{fill:none;stroke:#000000;stroke-width:2;stroke-linecap:round;stroke-linejoin:round;stroke-dasharray:10.013,3.3377;}
	.st16{fill:none;stroke:#000000;stroke-width:2;stroke-linecap:round;stroke-linejoin:round;stroke-dasharray:3.2499;}
	.st17{fill:none;stroke:#000000;stroke-width:2;stroke-linecap:round;stroke-linejoin:round;stroke-dasharray:8.217,2.739;}
	.st18{fill:none;stroke:#000000;stroke-width:2;stroke-linecap:round;stroke-linejoin:round;stroke-dasharray:7.9698,2.6566;}
</style>
<g>
	<polygon class="st0" points="50.125,64.781 64.434,79.189 58.968,88.989 41.282,88.989 35.816,79.189 	"/>
	<line class="st0" x1="64.434" y1="79.189" x2="35.816" y2="79.189"/>
	<polygon class="st0" points="50.281,65.078 55.618,79.147 50.281,88.875 44.943,79.147 	"/>
	<path class="st0" d="M11.125,11c0,0,3.059,37.372,39,53.381"/>
	<path class="st0" d="M89.125,11c0,0-3.059,37.372-39,53.381"/>
	<path class="st0" d="M42.434,24.824v-3.919c0,0,3.847,0.29,3.847-5.879v-0.359c0-2.024-1.641-3.665-3.665-3.665
		s-3.665,1.641-3.665,3.665"/>
	
		<ellipse transform="matrix(0.8297 -0.5582 0.5582 0.8297 -9.0923 28.6561)" class="st0" cx="42.42" cy="29.23" rx="3.701" ry="3.701"/>
	
		<ellipse transform="matrix(0.8297 -0.5582 0.5582 0.8297 -14.7101 30.3695)" class="st0" cx="42.42" cy="39.294" rx="6.362" ry="6.362"/>
	<path class="st0" d="M59.218,24.824l-0.051-3.919c0,0,3.85,0.24,3.769-5.929l-0.005-0.359c-0.027-2.024-1.689-3.643-3.713-3.617
		c-2.024,0.027-3.643,1.689-3.617,3.713"/>
	
		<ellipse transform="matrix(0.8223 -0.569 0.569 0.8223 -6.0997 38.925)" class="st0" cx="59.281" cy="29.23" rx="3.701" ry="3.701"/>
	
		<ellipse transform="matrix(0.8223 -0.569 0.569 0.8223 -11.8025 40.7882)" class="st0" cx="59.413" cy="39.293" rx="6.362" ry="6.362"/>
</g>
</svg>
