<?xml version="1.0" encoding="utf-8"?>
<!-- Generator: Adobe Illustrator 21.1.0, SVG Export Plug-In . SVG Version: 6.00 Build 0)  -->
<svg version="1.1" id="Layer_1" xmlns="http://www.w3.org/2000/svg" xmlns:xlink="http://www.w3.org/1999/xlink" x="0px" y="0px"
	 viewBox="0 0 100 100" style="enable-background:new 0 0 100 100;" xml:space="preserve">
<style type="text/css">
	.st0{fill:none;stroke:#000000;stroke-width:2;stroke-linecap:round;stroke-linejoin:round;stroke-miterlimit:10;}
	.st1{fill:none;stroke:#000000;stroke-width:2;stroke-miterlimit:10;}
	.st2{fill:none;stroke:#000000;stroke-width:2;stroke-linecap:round;stroke-miterlimit:10;}
	.st3{fill:none;stroke:#000000;stroke-width:2;stroke-linecap:round;stroke-linejoin:round;}
	.st4{fill:none;stroke:#000000;stroke-width:2;stroke-linecap:round;stroke-linejoin:round;stroke-dasharray:12.6718,4.2239;}
	.st5{fill:none;stroke:#000000;stroke-width:2;stroke-linecap:round;stroke-linejoin:round;stroke-dasharray:8.6895,2.8965;}
	.st6{fill:none;stroke:#000000;stroke-width:2;stroke-linecap:round;stroke-linejoin:round;stroke-dasharray:4.6635;}
	.st7{fill:none;stroke:#000000;stroke-width:2;stroke-linecap:round;stroke-linejoin:round;stroke-dasharray:12.8702,4.2901;}
	.st8{fill:none;stroke:#000000;stroke-width:2;stroke-linecap:round;stroke-linejoin:round;stroke-dasharray:8.4419,2.814;}
	.st9{fill:none;stroke:#000000;stroke-width:2;stroke-linecap:round;stroke-linejoin:round;stroke-dasharray:11.2908,3.7636;}
	.st10{fill:none;stroke:#000000;stroke-width:2;stroke-linecap:round;stroke-linejoin:round;stroke-dasharray:8.9003,2.9668;}
	.st11{fill:none;stroke:#000000;stroke-width:2;stroke-linecap:round;stroke-linejoin:round;stroke-dasharray:6.753,2.251;}
	.st12{fill:none;stroke:#000000;stroke-width:2;stroke-linecap:round;stroke-linejoin:round;stroke-dasharray:11.3525,3.7842;}
	.st13{fill:none;stroke:#000000;stroke-width:2;stroke-linecap:round;stroke-linejoin:round;stroke-dasharray:13.6549,4.5516;}
	.st14{fill:none;stroke:#000000;stroke-width:2;stroke-linecap:round;stroke-linejoin:round;stroke-dasharray:7.8218,2.6073;}
	.st15{fill:none;stroke:#000000;stroke-width:2;stroke-linecap:round;stroke-linejoin:round;stroke-dasharray:10.013,3.3377;}
	.st16{fill:none;stroke:#000000;stroke-width:2;stroke-linecap:round;stroke-linejoin:round;stroke-dasharray:3.2499;}
	.st17{fill:none;stroke:#000000;stroke-width:2;stroke-linecap:round;stroke-linejoin:round;stroke-dasharray:8.217,2.739;}
	.st18{fill:none;stroke:#000000;stroke-width:2;stroke-linecap:round;stroke-linejoin:round;stroke-dasharray:7.9698,2.6566;}
</style>
<g>
	<path class="st0" d="M38.1,73.755c0,0,0.298,9.976,6.699,15.002c0,0,5.395,1.914,10.815-4.988l-0.191,0.243
		c5.419-6.903,2.28-11.69,2.28-11.69c-6.401-5.026-16.163-2.948-16.163-2.948"/>
	<path class="st0" d="M34.955,72.499l-1.636-1.285c-1.484-1.165-1.868-3.252-0.896-4.869l0,0c1.159-1.928,3.746-2.404,5.515-1.015
		l1.636,1.285c1.769,1.389,1.921,4.015,0.323,5.599l0,0C38.557,73.542,36.438,73.664,34.955,72.499z"/>
	<line class="st0" x1="43.532" y1="87.621" x2="41.54" y2="69.374"/>
	<line class="st0" x1="47.982" y1="88.885" x2="45.647" y2="68.957"/>
	<line class="st0" x1="52.059" y1="86.935" x2="50.017" y2="69.483"/>
	<line class="st0" x1="55.931" y1="83.336" x2="54.447" y2="70.576"/>
	<path class="st0" d="M31.59,68.643c0,0-9.762,2.078-16.163-2.948c0,0-3.14-4.787,2.28-11.689l-0.191,0.243
		c5.419-6.903,10.815-4.988,10.815-4.988c6.402,5.026,6.699,15.002,6.699,15.002"/>
	<line class="st0" x1="16.831" y1="66.657" x2="35.03" y2="64.262"/>
	<line class="st0" x1="14.547" y1="62.634" x2="34.46" y2="60.173"/>
	<line class="st0" x1="15.474" y1="58.211" x2="32.912" y2="56.053"/>
	<line class="st0" x1="18.051" y1="53.595" x2="30.799" y2="52.009"/>
	<path class="st0" d="M39.781,27.841c0,0,8.28,5.572,16.095,3.298c0,0,4.7-3.269,2.249-11.695l0.086,0.297
		c-2.451-8.427-8.171-8.665-8.171-8.665c-7.815,2.273-11.815,11.417-11.815,11.417"/>
	<path class="st0" d="M36.928,29.666l-1.998,0.581c-1.811,0.527-3.731-0.378-4.479-2.109l0,0c-0.891-2.066,0.229-4.445,2.389-5.073
		l1.998-0.581c2.16-0.628,4.382,0.779,4.738,3v0C39.875,27.346,38.739,29.139,36.928,29.666z"/>
	<line class="st0" x1="54.215" y1="31.508" x2="38.226" y2="22.493"/>
	<line class="st0" x1="57.835" y1="28.628" x2="40.28" y2="18.912"/>
	<line class="st0" x1="57.959" y1="18.935" x2="46.725" y2="12.705"/>
	<path class="st0" d="M31.834,30.153c0,0-4,9.144-11.815,11.417c0,0-5.72-0.238-8.171-8.665l0.086,0.297
		c-2.451-8.427,2.249-11.695,2.249-11.695c7.815-2.273,16.095,3.299,16.095,3.299"/>
	<line class="st0" x1="21.618" y1="40.989" x2="30.278" y2="24.805"/>
	<line class="st0" x1="17.018" y1="40.501" x2="26.623" y2="22.885"/>
	<line class="st0" x1="11.715" y1="32.386" x2="17.855" y2="21.102"/>
	<path class="st0" d="M60.877,47.432c0,0-6.395-7.663-14.533-7.663c0,0-5.426,1.826-5.426,10.602v-0.309
		c0,8.776,5.426,10.602,5.426,10.602c8.139,0,14.533-7.663,14.533-7.663"/>
	<path class="st0" d="M69.416,53.001c0,0,6.395,7.663,14.533,7.663c0,0,5.426-1.826,5.426-10.602v0.309
		c0-8.776-5.426-10.602-5.426-10.602c-8.139,0-14.533,7.663-14.533,7.663"/>
	<path class="st0" d="M66.167,53.957h-2.08c-1.886,0-3.477-1.405-3.711-3.276l0,0c-0.279-2.232,1.462-4.204,3.711-4.204h2.08
		c2.25,0,3.99,1.972,3.711,4.204l0,0C69.644,52.552,68.053,53.957,66.167,53.957z"/>
</g>
</svg>
